<svg xmlns="http://www.w3.org/2000/svg" xmlns:xlink="http://www.w3.org/1999/xlink" width="125" zoomAndPan="magnify" viewBox="0 0 93.75 93.749996" height="125" preserveAspectRatio="xMidYMid meet" version="1.0"><defs><g/><clipPath id="b0957d1f17"><path d="M 46.75 3.457031 L 50.492188 3.457031 L 50.492188 7.199219 L 46.75 7.199219 Z M 46.75 3.457031 " clip-rule="nonzero"/></clipPath><clipPath id="11828363c2"><path d="M 46.75 3.457031 L 50.492188 3.457031 L 50.492188 7 L 46.75 7 Z M 46.75 3.457031 " clip-rule="nonzero"/></clipPath></defs><g fill="#2b2b2b" fill-opacity="1"><g transform="translate(26.335266, 48.351208)"><g><path d="M 1.203125 -19.625 C 1.203125 -22.726562 1.476562 -25.5625 2.03125 -28.125 C 2.59375 -30.695312 3.390625 -32.925781 4.421875 -34.8125 C 5.460938 -36.695312 6.691406 -38.148438 8.109375 -39.171875 C 9.535156 -40.203125 11.113281 -40.71875 12.84375 -40.71875 C 13.5625 -40.71875 14.234375 -40.566406 14.859375 -40.265625 C 15.484375 -39.972656 16.078125 -39.679688 16.640625 -39.390625 C 17.210938 -39.097656 17.753906 -38.953125 18.265625 -38.953125 C 18.660156 -38.953125 19.03125 -39.019531 19.375 -39.15625 C 19.71875 -39.289062 20.078125 -39.546875 20.453125 -39.921875 L 20.609375 -39.921875 C 20.609375 -38.773438 20.25 -37.851562 19.53125 -37.15625 C 18.820312 -36.46875 17.921875 -36.125 16.828125 -36.125 C 15.921875 -36.125 15.132812 -36.25 14.46875 -36.5 C 13.8125 -36.757812 13.203125 -37.050781 12.640625 -37.375 C 12.078125 -37.707031 11.523438 -38 10.984375 -38.25 C 10.441406 -38.507812 9.820312 -38.640625 9.125 -38.640625 C 8.539062 -38.640625 7.992188 -38.28125 7.484375 -37.5625 C 6.984375 -36.84375 6.523438 -35.890625 6.109375 -34.703125 C 5.703125 -33.523438 5.351562 -32.226562 5.0625 -30.8125 C 4.769531 -29.40625 4.539062 -28 4.375 -26.59375 C 4.21875 -25.1875 4.140625 -23.898438 4.140625 -22.734375 C 4.140625 -22.253906 4.144531 -21.765625 4.15625 -21.265625 C 4.175781 -20.773438 4.203125 -20.289062 4.234375 -19.8125 C 4.578125 -21.40625 5.207031 -22.90625 6.125 -24.3125 C 7.039062 -25.726562 8.171875 -26.875 9.515625 -27.75 C 10.859375 -28.625 12.3125 -29.0625 13.875 -29.0625 C 14.488281 -29.0625 14.992188 -29.019531 15.390625 -28.9375 C 15.785156 -28.863281 16.195312 -28.722656 16.625 -28.515625 L 16.625 -24.84375 C 15.957031 -25.269531 15.289062 -25.582031 14.625 -25.78125 C 13.96875 -25.976562 13.1875 -26.078125 12.28125 -26.078125 C 10.53125 -26.078125 9.019531 -25.566406 7.75 -24.546875 C 6.488281 -23.523438 5.585938 -22.164062 5.046875 -20.46875 C 4.503906 -18.78125 4.40625 -16.914062 4.75 -14.875 L 4.75 -14.90625 C 5.175781 -12.25 5.789062 -9.835938 6.59375 -7.671875 C 7.40625 -5.503906 8.410156 -3.78125 9.609375 -2.5 C 10.804688 -1.226562 12.160156 -0.59375 13.671875 -0.59375 C 14.492188 -0.59375 15.269531 -0.804688 16 -1.234375 C 16.738281 -1.660156 17.351562 -2.25 17.84375 -3 C 18.332031 -3.757812 18.601562 -4.609375 18.65625 -5.546875 C 18.707031 -6.335938 18.539062 -7.097656 18.15625 -7.828125 C 17.769531 -8.566406 17.316406 -9.304688 16.796875 -10.046875 C 16.285156 -10.796875 15.828125 -11.566406 15.421875 -12.359375 C 15.023438 -13.160156 14.828125 -14.039062 14.828125 -15 C 14.828125 -15.925781 15.078125 -16.757812 15.578125 -17.5 C 16.085938 -18.25 16.753906 -18.625 17.578125 -18.625 C 17.472656 -18.4375 17.394531 -18.253906 17.34375 -18.078125 C 17.289062 -17.910156 17.265625 -17.679688 17.265625 -17.390625 C 17.265625 -16.722656 17.429688 -16.0625 17.765625 -15.40625 C 18.097656 -14.757812 18.488281 -14.085938 18.9375 -13.390625 C 19.394531 -12.703125 19.785156 -11.972656 20.109375 -11.203125 C 20.441406 -10.429688 20.609375 -9.609375 20.609375 -8.734375 C 20.609375 -7.109375 20.296875 -5.570312 19.671875 -4.125 C 19.046875 -2.675781 18.15625 -1.492188 17 -0.578125 C 15.84375 0.335938 14.46875 0.796875 12.875 0.796875 C 11.257812 0.796875 9.742188 0.316406 8.328125 -0.640625 C 6.921875 -1.597656 5.675781 -2.96875 4.59375 -4.75 C 3.519531 -6.53125 2.6875 -8.675781 2.09375 -11.1875 C 1.5 -13.695312 1.203125 -16.507812 1.203125 -19.625 Z M 1.203125 -19.625 "/></g></g></g><g fill="#2b2b2b" fill-opacity="1"><g transform="translate(46.947106, 48.351208)"><g><path d="M 2.1875 -31.578125 C 2.1875 -32.984375 2.179688 -34.191406 2.171875 -35.203125 C 2.160156 -36.210938 2.0625 -37.082031 1.875 -37.8125 C 1.6875 -38.550781 1.328125 -39.1875 0.796875 -39.71875 L 0.796875 -39.875 L 5.296875 -39.875 C 6.304688 -39.875 7.394531 -40 8.5625 -40.25 C 9.738281 -40.5 10.960938 -40.625 12.234375 -40.625 C 13.617188 -40.625 14.800781 -40.234375 15.78125 -39.453125 C 16.769531 -38.671875 17.53125 -37.65625 18.0625 -36.40625 C 18.59375 -35.15625 18.859375 -33.8125 18.859375 -32.375 C 18.859375 -30.757812 18.710938 -29.234375 18.421875 -27.796875 C 18.128906 -26.359375 17.835938 -24.992188 17.546875 -23.703125 C 17.253906 -22.410156 17.109375 -21.140625 17.109375 -19.890625 C 17.109375 -18.671875 17.253906 -17.410156 17.546875 -16.109375 C 17.835938 -14.804688 18.128906 -13.441406 18.421875 -12.015625 C 18.710938 -10.597656 18.859375 -9.066406 18.859375 -7.421875 C 18.859375 -5.984375 18.59375 -4.640625 18.0625 -3.390625 C 17.53125 -2.140625 16.769531 -1.117188 15.78125 -0.328125 C 14.800781 0.453125 13.617188 0.84375 12.234375 0.84375 C 11.460938 0.84375 10.722656 0.785156 10.015625 0.671875 C 9.316406 0.566406 8.546875 0.445312 7.703125 0.3125 C 6.867188 0.1875 5.867188 0.0976562 4.703125 0.046875 C 4.203125 0.046875 3.910156 0.046875 3.828125 0.046875 C 3.742188 0.046875 3.734375 0.046875 3.796875 0.046875 C 3.867188 0.046875 3.878906 0.0351562 3.828125 0.015625 C 3.773438 0.00390625 3.53125 0 3.09375 0 C 2.65625 0 1.890625 0 0.796875 0 L 0.796875 -0.125 C 1.328125 -0.65625 1.6875 -1.28125 1.875 -2 C 2.0625 -2.71875 2.160156 -3.585938 2.171875 -4.609375 C 2.179688 -5.628906 2.1875 -6.832031 2.1875 -8.21875 Z M 5.34375 -36.046875 C 5.34375 -35.460938 5.34375 -35.050781 5.34375 -34.8125 C 5.34375 -34.570312 5.347656 -34.359375 5.359375 -34.171875 C 5.378906 -33.984375 5.390625 -33.707031 5.390625 -33.34375 C 5.390625 -32.988281 5.390625 -32.398438 5.390625 -31.578125 L 5.390625 -8.21875 C 5.390625 -7.414062 5.390625 -6.84375 5.390625 -6.5 C 5.390625 -6.15625 5.394531 -5.914062 5.40625 -5.78125 C 5.414062 -5.644531 5.421875 -5.5 5.421875 -5.34375 C 5.421875 -5.1875 5.421875 -4.894531 5.421875 -4.46875 C 5.421875 -3.1875 5.769531 -2.257812 6.46875 -1.6875 C 7.175781 -1.125 8.023438 -0.84375 9.015625 -0.84375 C 10.128906 -0.84375 11.203125 -1.0625 12.234375 -1.5 C 13.273438 -1.9375 14.128906 -2.625 14.796875 -3.5625 C 15.460938 -4.507812 15.796875 -5.726562 15.796875 -7.21875 C 15.796875 -8.757812 15.640625 -10.234375 15.328125 -11.640625 C 15.023438 -13.046875 14.710938 -14.429688 14.390625 -15.796875 C 14.078125 -17.171875 13.921875 -18.535156 13.921875 -19.890625 C 13.921875 -21.273438 14.078125 -22.644531 14.390625 -24 C 14.710938 -25.351562 15.023438 -26.734375 15.328125 -28.140625 C 15.640625 -29.554688 15.796875 -31.035156 15.796875 -32.578125 C 15.796875 -34.066406 15.460938 -35.28125 14.796875 -36.21875 C 14.128906 -37.164062 13.273438 -37.859375 12.234375 -38.296875 C 11.203125 -38.734375 10.128906 -38.953125 9.015625 -38.953125 C 7.953125 -38.953125 7.070312 -38.78125 6.375 -38.4375 C 5.6875 -38.09375 5.34375 -37.296875 5.34375 -36.046875 Z M 5.34375 -36.046875 "/></g></g></g><g fill="#2b2b2b" fill-opacity="1"><g transform="translate(26.335266, 83.328043)"><g><path d="M 1.203125 -19.625 C 1.203125 -22.726562 1.476562 -25.5625 2.03125 -28.125 C 2.59375 -30.695312 3.390625 -32.925781 4.421875 -34.8125 C 5.460938 -36.695312 6.691406 -38.148438 8.109375 -39.171875 C 9.535156 -40.203125 11.113281 -40.71875 12.84375 -40.71875 C 13.5625 -40.71875 14.234375 -40.566406 14.859375 -40.265625 C 15.484375 -39.972656 16.078125 -39.679688 16.640625 -39.390625 C 17.210938 -39.097656 17.753906 -38.953125 18.265625 -38.953125 C 18.660156 -38.953125 19.03125 -39.019531 19.375 -39.15625 C 19.71875 -39.289062 20.078125 -39.546875 20.453125 -39.921875 L 20.609375 -39.921875 C 20.609375 -38.773438 20.25 -37.851562 19.53125 -37.15625 C 18.820312 -36.46875 17.921875 -36.125 16.828125 -36.125 C 15.921875 -36.125 15.132812 -36.25 14.46875 -36.5 C 13.8125 -36.757812 13.203125 -37.050781 12.640625 -37.375 C 12.078125 -37.707031 11.523438 -38 10.984375 -38.25 C 10.441406 -38.507812 9.820312 -38.640625 9.125 -38.640625 C 8.539062 -38.640625 7.992188 -38.28125 7.484375 -37.5625 C 6.984375 -36.84375 6.523438 -35.890625 6.109375 -34.703125 C 5.703125 -33.523438 5.351562 -32.226562 5.0625 -30.8125 C 4.769531 -29.40625 4.539062 -28 4.375 -26.59375 C 4.21875 -25.1875 4.140625 -23.898438 4.140625 -22.734375 C 4.140625 -22.253906 4.144531 -21.765625 4.15625 -21.265625 C 4.175781 -20.773438 4.203125 -20.289062 4.234375 -19.8125 C 4.578125 -21.40625 5.207031 -22.90625 6.125 -24.3125 C 7.039062 -25.726562 8.171875 -26.875 9.515625 -27.75 C 10.859375 -28.625 12.3125 -29.0625 13.875 -29.0625 C 14.488281 -29.0625 14.992188 -29.019531 15.390625 -28.9375 C 15.785156 -28.863281 16.195312 -28.722656 16.625 -28.515625 L 16.625 -24.84375 C 15.957031 -25.269531 15.289062 -25.582031 14.625 -25.78125 C 13.96875 -25.976562 13.1875 -26.078125 12.28125 -26.078125 C 10.53125 -26.078125 9.019531 -25.566406 7.75 -24.546875 C 6.488281 -23.523438 5.585938 -22.164062 5.046875 -20.46875 C 4.503906 -18.78125 4.40625 -16.914062 4.75 -14.875 L 4.75 -14.90625 C 5.175781 -12.25 5.789062 -9.835938 6.59375 -7.671875 C 7.40625 -5.503906 8.410156 -3.78125 9.609375 -2.5 C 10.804688 -1.226562 12.160156 -0.59375 13.671875 -0.59375 C 14.492188 -0.59375 15.269531 -0.804688 16 -1.234375 C 16.738281 -1.660156 17.351562 -2.25 17.84375 -3 C 18.332031 -3.757812 18.601562 -4.609375 18.65625 -5.546875 C 18.707031 -6.335938 18.539062 -7.097656 18.15625 -7.828125 C 17.769531 -8.566406 17.316406 -9.304688 16.796875 -10.046875 C 16.285156 -10.796875 15.828125 -11.566406 15.421875 -12.359375 C 15.023438 -13.160156 14.828125 -14.039062 14.828125 -15 C 14.828125 -15.925781 15.078125 -16.757812 15.578125 -17.5 C 16.085938 -18.25 16.753906 -18.625 17.578125 -18.625 C 17.472656 -18.4375 17.394531 -18.253906 17.34375 -18.078125 C 17.289062 -17.910156 17.265625 -17.679688 17.265625 -17.390625 C 17.265625 -16.722656 17.429688 -16.0625 17.765625 -15.40625 C 18.097656 -14.757812 18.488281 -14.085938 18.9375 -13.390625 C 19.394531 -12.703125 19.785156 -11.972656 20.109375 -11.203125 C 20.441406 -10.429688 20.609375 -9.609375 20.609375 -8.734375 C 20.609375 -7.109375 20.296875 -5.570312 19.671875 -4.125 C 19.046875 -2.675781 18.15625 -1.492188 17 -0.578125 C 15.84375 0.335938 14.46875 0.796875 12.875 0.796875 C 11.257812 0.796875 9.742188 0.316406 8.328125 -0.640625 C 6.921875 -1.597656 5.675781 -2.96875 4.59375 -4.75 C 3.519531 -6.53125 2.6875 -8.675781 2.09375 -11.1875 C 1.5 -13.695312 1.203125 -16.507812 1.203125 -19.625 Z M 1.203125 -19.625 "/></g></g></g><g fill="#2b2b2b" fill-opacity="1"><g transform="translate(46.947106, 83.328043)"><g><path d="M 2.1875 -31.625 C 2.1875 -33.03125 2.179688 -34.238281 2.171875 -35.25 C 2.160156 -36.257812 2.0625 -37.125 1.875 -37.84375 C 1.6875 -38.5625 1.328125 -39.1875 0.796875 -39.71875 L 0.796875 -39.875 C 1.328125 -39.769531 2.003906 -39.65625 2.828125 -39.53125 C 3.648438 -39.414062 4.316406 -39.367188 4.828125 -39.390625 C 5.734375 -39.472656 6.523438 -39.613281 7.203125 -39.8125 C 7.878906 -40.007812 8.5625 -40.203125 9.25 -40.390625 C 9.9375 -40.578125 10.722656 -40.671875 11.609375 -40.671875 C 12.960938 -40.671875 14.191406 -40.242188 15.296875 -39.390625 C 16.398438 -38.546875 17.28125 -37.453125 17.9375 -36.109375 C 18.601562 -34.765625 18.9375 -33.347656 18.9375 -31.859375 C 18.9375 -30.660156 18.789062 -29.5625 18.5 -28.5625 C 18.207031 -27.570312 17.84375 -26.609375 17.40625 -25.671875 C 16.96875 -24.742188 16.53125 -23.773438 16.09375 -22.765625 C 15.65625 -21.753906 15.285156 -20.632812 14.984375 -19.40625 C 14.691406 -18.1875 14.546875 -16.78125 14.546875 -15.1875 C 14.546875 -13.164062 14.691406 -11.316406 14.984375 -9.640625 C 15.285156 -7.972656 15.710938 -6.367188 16.265625 -4.828125 C 16.828125 -3.285156 17.492188 -1.675781 18.265625 0 L 14.640625 0 C 13.921875 -1.300781 13.304688 -2.832031 12.796875 -4.59375 C 12.296875 -6.363281 12.046875 -8.179688 12.046875 -10.046875 C 12.046875 -11.984375 12.269531 -13.8125 12.71875 -15.53125 C 13.164062 -17.25 13.695312 -18.867188 14.3125 -20.390625 C 14.925781 -21.921875 15.457031 -23.367188 15.90625 -24.734375 C 16.363281 -26.109375 16.59375 -27.421875 16.59375 -28.671875 C 16.59375 -29.785156 16.453125 -30.929688 16.171875 -32.109375 C 15.890625 -33.296875 15.484375 -34.390625 14.953125 -35.390625 C 14.421875 -36.390625 13.78125 -37.203125 13.03125 -37.828125 C 12.289062 -38.453125 11.457031 -38.765625 10.53125 -38.765625 C 9.539062 -38.765625 8.664062 -38.703125 7.90625 -38.578125 C 7.15625 -38.460938 6.351562 -38.40625 5.5 -38.40625 C 5.070312 -38.40625 4.570312 -38.457031 4 -38.5625 C 3.4375 -38.664062 2.96875 -38.8125 2.59375 -39 C 3.28125 -38.414062 3.828125 -37.65625 4.234375 -36.71875 C 4.648438 -35.789062 4.945312 -34.832031 5.125 -33.84375 C 5.300781 -32.863281 5.390625 -31.953125 5.390625 -31.109375 L 5.390625 -8.25 C 5.390625 -6.875 5.394531 -5.671875 5.40625 -4.640625 C 5.414062 -3.617188 5.515625 -2.75 5.703125 -2.03125 C 5.890625 -1.3125 6.25 -0.6875 6.78125 -0.15625 L 6.78125 0 L 0.796875 0 L 0.796875 -0.15625 C 1.328125 -0.6875 1.6875 -1.3125 1.875 -2.03125 C 2.0625 -2.75 2.160156 -3.617188 2.171875 -4.640625 C 2.179688 -5.671875 2.1875 -6.875 2.1875 -8.25 Z M 2.1875 -31.625 "/></g></g></g><g clip-path="url(#b0957d1f17)"><path fill="#db4a2b" d="M 50.398438 5.28125 C 50.398438 5.523438 50.351562 5.753906 50.257812 5.980469 C 50.164062 6.203125 50.035156 6.398438 49.863281 6.570312 C 49.691406 6.742188 49.496094 6.875 49.269531 6.964844 C 49.046875 7.058594 48.816406 7.105469 48.574219 7.105469 C 48.332031 7.105469 48.097656 7.058594 47.875 6.964844 C 47.652344 6.875 47.457031 6.742188 47.285156 6.570312 C 47.113281 6.398438 46.980469 6.203125 46.890625 5.980469 C 46.796875 5.753906 46.75 5.523438 46.75 5.28125 C 46.75 5.039062 46.796875 4.808594 46.890625 4.582031 C 46.980469 4.359375 47.113281 4.164062 47.285156 3.992188 C 47.457031 3.820312 47.652344 3.6875 47.875 3.597656 C 48.097656 3.503906 48.332031 3.457031 48.574219 3.457031 C 48.816406 3.457031 49.046875 3.503906 49.269531 3.597656 C 49.496094 3.6875 49.691406 3.820312 49.863281 3.992188 C 50.035156 4.164062 50.164062 4.359375 50.257812 4.582031 C 50.351562 4.808594 50.398438 5.039062 50.398438 5.28125 Z M 50.398438 5.28125 " fill-opacity="1" fill-rule="nonzero"/></g><g clip-path="url(#11828363c2)"><path fill="#db4a2b" d="M 48.605469 6.9375 C 48.59375 6.9375 48.582031 6.925781 48.582031 6.910156 C 48.582031 6.898438 48.59375 6.886719 48.605469 6.886719 L 48.617188 6.886719 C 48.621094 6.886719 48.621094 6.886719 48.621094 6.886719 C 48.632812 6.886719 48.644531 6.894531 48.644531 6.910156 C 48.644531 6.925781 48.636719 6.9375 48.621094 6.9375 Z M 48.53125 6.9375 L 48.515625 6.9375 C 48.503906 6.9375 48.492188 6.925781 48.492188 6.910156 C 48.492188 6.894531 48.503906 6.882812 48.519531 6.886719 L 48.53125 6.886719 C 48.542969 6.886719 48.554688 6.898438 48.554688 6.910156 C 48.554688 6.925781 48.542969 6.9375 48.53125 6.9375 Z M 48.695312 6.933594 C 48.683594 6.933594 48.671875 6.921875 48.671875 6.910156 C 48.667969 6.894531 48.679688 6.882812 48.695312 6.882812 L 48.707031 6.878906 C 48.722656 6.878906 48.734375 6.890625 48.734375 6.902344 C 48.738281 6.917969 48.726562 6.929688 48.710938 6.933594 L 48.699219 6.933594 C 48.699219 6.933594 48.699219 6.933594 48.695312 6.933594 Z M 48.441406 6.933594 C 48.441406 6.933594 48.4375 6.933594 48.4375 6.933594 L 48.425781 6.929688 C 48.410156 6.929688 48.402344 6.917969 48.402344 6.902344 C 48.402344 6.890625 48.414062 6.878906 48.429688 6.878906 L 48.441406 6.878906 C 48.457031 6.882812 48.46875 6.894531 48.464844 6.910156 C 48.464844 6.921875 48.453125 6.933594 48.441406 6.933594 Z M 48.785156 6.921875 C 48.773438 6.921875 48.761719 6.914062 48.761719 6.902344 C 48.757812 6.886719 48.769531 6.875 48.78125 6.871094 L 48.796875 6.871094 C 48.808594 6.867188 48.824219 6.878906 48.824219 6.894531 C 48.828125 6.90625 48.816406 6.917969 48.800781 6.921875 L 48.789062 6.921875 C 48.789062 6.921875 48.785156 6.921875 48.785156 6.921875 Z M 48.351562 6.921875 C 48.351562 6.921875 48.347656 6.921875 48.347656 6.921875 L 48.335938 6.921875 C 48.320312 6.917969 48.3125 6.90625 48.3125 6.890625 C 48.316406 6.878906 48.328125 6.867188 48.34375 6.871094 L 48.355469 6.871094 C 48.367188 6.871094 48.378906 6.886719 48.375 6.898438 C 48.375 6.914062 48.363281 6.921875 48.351562 6.921875 Z M 48.875 6.910156 C 48.863281 6.910156 48.851562 6.902344 48.847656 6.886719 C 48.847656 6.875 48.855469 6.859375 48.871094 6.859375 L 48.882812 6.855469 C 48.898438 6.851562 48.910156 6.863281 48.914062 6.875 C 48.914062 6.890625 48.90625 6.902344 48.890625 6.90625 L 48.878906 6.910156 C 48.878906 6.910156 48.875 6.910156 48.875 6.910156 Z M 48.261719 6.90625 C 48.261719 6.90625 48.257812 6.90625 48.257812 6.90625 L 48.246094 6.90625 C 48.230469 6.902344 48.222656 6.886719 48.222656 6.875 C 48.226562 6.859375 48.242188 6.851562 48.253906 6.855469 L 48.265625 6.855469 C 48.28125 6.859375 48.289062 6.871094 48.289062 6.886719 C 48.285156 6.898438 48.273438 6.90625 48.261719 6.90625 Z M 48.960938 6.890625 C 48.949219 6.890625 48.941406 6.882812 48.9375 6.871094 C 48.933594 6.855469 48.941406 6.84375 48.957031 6.839844 L 48.96875 6.835938 C 48.980469 6.832031 48.996094 6.839844 49 6.855469 C 49.003906 6.871094 48.996094 6.882812 48.980469 6.886719 L 48.96875 6.890625 C 48.964844 6.890625 48.964844 6.890625 48.960938 6.890625 Z M 48.175781 6.886719 C 48.171875 6.886719 48.171875 6.886719 48.167969 6.886719 L 48.15625 6.882812 C 48.140625 6.878906 48.132812 6.867188 48.136719 6.851562 C 48.140625 6.839844 48.15625 6.832031 48.167969 6.835938 L 48.179688 6.835938 C 48.195312 6.839844 48.203125 6.855469 48.199219 6.867188 C 48.195312 6.878906 48.1875 6.886719 48.175781 6.886719 Z M 49.050781 6.867188 C 49.039062 6.867188 49.027344 6.859375 49.023438 6.847656 C 49.019531 6.835938 49.027344 6.820312 49.042969 6.816406 L 49.054688 6.8125 C 49.066406 6.808594 49.082031 6.816406 49.085938 6.828125 C 49.089844 6.84375 49.082031 6.859375 49.070312 6.863281 L 49.058594 6.867188 C 49.054688 6.867188 49.050781 6.867188 49.050781 6.867188 Z M 48.089844 6.863281 C 48.085938 6.863281 48.082031 6.863281 48.082031 6.863281 L 48.066406 6.859375 C 48.054688 6.855469 48.046875 6.839844 48.050781 6.828125 C 48.054688 6.8125 48.070312 6.804688 48.082031 6.808594 L 48.097656 6.8125 C 48.109375 6.816406 48.117188 6.832031 48.113281 6.847656 C 48.109375 6.855469 48.097656 6.863281 48.089844 6.863281 Z M 49.132812 6.839844 C 49.125 6.839844 49.113281 6.832031 49.109375 6.820312 C 49.105469 6.808594 49.113281 6.792969 49.125 6.789062 L 49.136719 6.785156 C 49.152344 6.777344 49.164062 6.785156 49.171875 6.800781 C 49.175781 6.8125 49.167969 6.828125 49.15625 6.832031 L 49.144531 6.835938 C 49.140625 6.839844 49.136719 6.839844 49.132812 6.839844 Z M 48.003906 6.835938 C 48 6.835938 47.996094 6.835938 47.992188 6.832031 L 47.980469 6.828125 C 47.96875 6.824219 47.960938 6.808594 47.96875 6.796875 C 47.972656 6.78125 47.988281 6.773438 48 6.78125 L 48.011719 6.785156 C 48.027344 6.789062 48.03125 6.804688 48.027344 6.816406 C 48.023438 6.828125 48.011719 6.835938 48.003906 6.835938 Z M 49.21875 6.804688 C 49.207031 6.804688 49.199219 6.800781 49.195312 6.789062 C 49.1875 6.777344 49.195312 6.761719 49.207031 6.753906 L 49.21875 6.75 C 49.230469 6.746094 49.246094 6.75 49.253906 6.765625 C 49.257812 6.777344 49.253906 6.792969 49.238281 6.796875 L 49.226562 6.804688 C 49.222656 6.804688 49.222656 6.804688 49.21875 6.804688 Z M 47.917969 6.800781 C 47.917969 6.800781 47.914062 6.800781 47.910156 6.796875 L 47.898438 6.792969 C 47.882812 6.789062 47.878906 6.773438 47.882812 6.757812 C 47.890625 6.746094 47.90625 6.742188 47.917969 6.746094 L 47.929688 6.75 C 47.941406 6.757812 47.949219 6.773438 47.941406 6.785156 C 47.9375 6.796875 47.929688 6.800781 47.917969 6.800781 Z M 49.300781 6.765625 C 49.289062 6.765625 49.28125 6.761719 49.277344 6.753906 C 49.269531 6.742188 49.273438 6.726562 49.289062 6.71875 L 49.296875 6.714844 C 49.3125 6.707031 49.328125 6.710938 49.332031 6.722656 C 49.339844 6.738281 49.335938 6.753906 49.320312 6.757812 L 49.308594 6.765625 C 49.308594 6.765625 49.304688 6.765625 49.300781 6.765625 Z M 47.839844 6.761719 C 47.835938 6.761719 47.832031 6.761719 47.828125 6.761719 L 47.816406 6.753906 C 47.804688 6.75 47.796875 6.730469 47.804688 6.71875 C 47.8125 6.707031 47.824219 6.703125 47.839844 6.707031 L 47.851562 6.714844 C 47.863281 6.71875 47.867188 6.734375 47.859375 6.75 C 47.855469 6.757812 47.847656 6.761719 47.839844 6.761719 Z M 49.378906 6.726562 C 49.371094 6.726562 49.359375 6.722656 49.355469 6.710938 C 49.347656 6.699219 49.351562 6.683594 49.367188 6.675781 L 49.375 6.671875 C 49.386719 6.664062 49.40625 6.667969 49.410156 6.679688 C 49.417969 6.691406 49.414062 6.707031 49.402344 6.714844 L 49.390625 6.722656 C 49.386719 6.722656 49.382812 6.726562 49.378906 6.726562 Z M 47.757812 6.71875 C 47.753906 6.71875 47.75 6.71875 47.746094 6.714844 L 47.734375 6.710938 C 47.722656 6.703125 47.71875 6.6875 47.726562 6.675781 C 47.734375 6.660156 47.75 6.65625 47.761719 6.664062 L 47.773438 6.671875 C 47.785156 6.679688 47.789062 6.695312 47.78125 6.707031 C 47.777344 6.714844 47.769531 6.71875 47.757812 6.71875 Z M 49.453125 6.679688 C 49.445312 6.679688 49.4375 6.675781 49.433594 6.667969 C 49.425781 6.65625 49.429688 6.640625 49.441406 6.632812 L 49.453125 6.625 C 49.464844 6.617188 49.480469 6.621094 49.488281 6.632812 C 49.496094 6.644531 49.492188 6.660156 49.480469 6.667969 L 49.46875 6.675781 C 49.464844 6.675781 49.460938 6.679688 49.453125 6.679688 Z M 47.683594 6.671875 C 47.675781 6.671875 47.671875 6.671875 47.667969 6.667969 L 47.65625 6.660156 C 47.644531 6.652344 47.640625 6.636719 47.652344 6.625 C 47.660156 6.613281 47.675781 6.609375 47.6875 6.617188 L 47.695312 6.625 C 47.707031 6.632812 47.710938 6.648438 47.703125 6.660156 C 47.699219 6.667969 47.691406 6.671875 47.683594 6.671875 Z M 49.527344 6.628906 C 49.519531 6.628906 49.511719 6.625 49.507812 6.617188 C 49.5 6.605469 49.503906 6.589844 49.515625 6.582031 L 49.523438 6.574219 C 49.535156 6.566406 49.550781 6.570312 49.558594 6.578125 C 49.570312 6.589844 49.566406 6.605469 49.554688 6.617188 L 49.542969 6.625 C 49.539062 6.625 49.535156 6.628906 49.527344 6.628906 Z M 47.609375 6.621094 C 47.601562 6.621094 47.597656 6.621094 47.59375 6.617188 L 47.582031 6.609375 C 47.570312 6.601562 47.570312 6.582031 47.578125 6.574219 C 47.585938 6.5625 47.601562 6.558594 47.613281 6.566406 L 47.625 6.574219 C 47.636719 6.582031 47.636719 6.597656 47.628906 6.609375 C 47.625 6.617188 47.617188 6.621094 47.609375 6.621094 Z M 49.601562 6.574219 C 49.59375 6.574219 49.585938 6.570312 49.582031 6.5625 C 49.570312 6.554688 49.574219 6.535156 49.582031 6.527344 L 49.59375 6.519531 C 49.605469 6.511719 49.621094 6.511719 49.628906 6.523438 C 49.640625 6.535156 49.636719 6.550781 49.625 6.558594 L 49.617188 6.566406 C 49.613281 6.570312 49.605469 6.574219 49.601562 6.574219 Z M 47.539062 6.566406 C 47.53125 6.566406 47.527344 6.5625 47.519531 6.558594 L 47.511719 6.550781 C 47.5 6.542969 47.5 6.527344 47.507812 6.515625 C 47.515625 6.503906 47.535156 6.503906 47.542969 6.511719 L 47.554688 6.519531 C 47.566406 6.53125 47.566406 6.546875 47.558594 6.558594 C 47.550781 6.5625 47.546875 6.566406 47.539062 6.566406 Z M 49.667969 6.515625 C 49.660156 6.515625 49.652344 6.511719 49.648438 6.507812 C 49.640625 6.496094 49.640625 6.480469 49.652344 6.46875 L 49.660156 6.460938 C 49.671875 6.453125 49.6875 6.453125 49.695312 6.464844 C 49.707031 6.472656 49.707031 6.492188 49.695312 6.5 L 49.6875 6.507812 C 49.679688 6.511719 49.675781 6.515625 49.667969 6.515625 Z M 47.46875 6.507812 C 47.464844 6.507812 47.457031 6.503906 47.453125 6.5 L 47.441406 6.492188 C 47.433594 6.480469 47.433594 6.464844 47.441406 6.457031 C 47.453125 6.445312 47.46875 6.445312 47.476562 6.453125 L 47.488281 6.460938 C 47.496094 6.472656 47.5 6.488281 47.488281 6.5 C 47.484375 6.503906 47.476562 6.507812 47.46875 6.507812 Z M 49.734375 6.453125 C 49.726562 6.453125 49.71875 6.449219 49.714844 6.445312 C 49.703125 6.4375 49.703125 6.417969 49.714844 6.410156 L 49.722656 6.398438 C 49.734375 6.390625 49.75 6.390625 49.761719 6.398438 C 49.769531 6.410156 49.769531 6.425781 49.761719 6.4375 L 49.75 6.445312 C 49.746094 6.449219 49.738281 6.453125 49.734375 6.453125 Z M 47.40625 6.445312 C 47.398438 6.445312 47.390625 6.441406 47.386719 6.4375 L 47.378906 6.425781 C 47.367188 6.417969 47.367188 6.402344 47.378906 6.390625 C 47.390625 6.382812 47.40625 6.382812 47.414062 6.390625 L 47.425781 6.402344 C 47.433594 6.410156 47.433594 6.425781 47.421875 6.4375 C 47.417969 6.441406 47.410156 6.445312 47.40625 6.445312 Z M 49.792969 6.386719 C 49.789062 6.386719 49.78125 6.386719 49.777344 6.382812 C 49.765625 6.371094 49.765625 6.355469 49.773438 6.34375 L 49.785156 6.335938 C 49.792969 6.324219 49.808594 6.324219 49.820312 6.332031 C 49.832031 6.34375 49.832031 6.359375 49.824219 6.371094 L 49.8125 6.378906 C 49.808594 6.382812 49.800781 6.386719 49.792969 6.386719 Z M 47.34375 6.378906 C 47.335938 6.378906 47.332031 6.375 47.324219 6.371094 L 47.316406 6.359375 C 47.308594 6.347656 47.308594 6.332031 47.320312 6.324219 C 47.332031 6.3125 47.347656 6.316406 47.355469 6.328125 L 47.363281 6.335938 C 47.375 6.347656 47.371094 6.363281 47.363281 6.371094 C 47.355469 6.375 47.351562 6.378906 47.34375 6.378906 Z M 49.851562 6.320312 C 49.847656 6.320312 49.839844 6.316406 49.835938 6.3125 C 49.824219 6.304688 49.824219 6.289062 49.832031 6.277344 L 49.839844 6.265625 C 49.847656 6.253906 49.863281 6.253906 49.875 6.261719 C 49.886719 6.269531 49.890625 6.289062 49.878906 6.296875 L 49.871094 6.308594 C 49.867188 6.316406 49.859375 6.320312 49.851562 6.320312 Z M 47.289062 6.308594 C 47.28125 6.308594 47.273438 6.304688 47.265625 6.300781 L 47.257812 6.289062 C 47.25 6.277344 47.253906 6.261719 47.265625 6.253906 C 47.273438 6.246094 47.292969 6.246094 47.300781 6.257812 L 47.308594 6.269531 C 47.316406 6.277344 47.316406 6.296875 47.304688 6.304688 C 47.296875 6.308594 47.292969 6.308594 47.289062 6.308594 Z M 49.90625 6.246094 C 49.902344 6.246094 49.894531 6.246094 49.890625 6.242188 C 49.878906 6.234375 49.875 6.21875 49.886719 6.207031 L 49.890625 6.195312 C 49.898438 6.183594 49.917969 6.179688 49.929688 6.1875 C 49.941406 6.199219 49.941406 6.214844 49.933594 6.226562 L 49.925781 6.234375 C 49.921875 6.242188 49.914062 6.246094 49.90625 6.246094 Z M 47.234375 6.238281 C 47.226562 6.238281 47.21875 6.234375 47.214844 6.226562 L 47.207031 6.214844 C 47.199219 6.203125 47.199219 6.1875 47.210938 6.179688 C 47.222656 6.171875 47.242188 6.175781 47.25 6.1875 L 47.253906 6.195312 C 47.261719 6.207031 47.261719 6.222656 47.25 6.230469 C 47.246094 6.234375 47.238281 6.238281 47.234375 6.238281 Z M 49.957031 6.171875 C 49.953125 6.171875 49.945312 6.171875 49.941406 6.167969 C 49.929688 6.160156 49.925781 6.144531 49.933594 6.132812 L 49.941406 6.121094 C 49.949219 6.109375 49.964844 6.105469 49.976562 6.113281 C 49.988281 6.121094 49.992188 6.136719 49.984375 6.148438 L 49.976562 6.160156 C 49.972656 6.167969 49.964844 6.171875 49.957031 6.171875 Z M 47.183594 6.160156 C 47.175781 6.160156 47.167969 6.15625 47.164062 6.148438 L 47.15625 6.140625 C 47.148438 6.125 47.152344 6.109375 47.164062 6.101562 C 47.175781 6.097656 47.191406 6.101562 47.199219 6.113281 L 47.207031 6.121094 C 47.214844 6.136719 47.210938 6.152344 47.199219 6.15625 C 47.195312 6.160156 47.191406 6.160156 47.183594 6.160156 Z M 50 6.09375 C 49.996094 6.09375 49.992188 6.09375 49.988281 6.089844 C 49.976562 6.085938 49.972656 6.070312 49.980469 6.054688 L 49.984375 6.046875 C 49.992188 6.03125 50.007812 6.027344 50.019531 6.035156 C 50.03125 6.042969 50.039062 6.058594 50.03125 6.070312 L 50.023438 6.082031 C 50.019531 6.089844 50.011719 6.09375 50 6.09375 Z M 47.140625 6.085938 C 47.132812 6.085938 47.121094 6.078125 47.117188 6.070312 L 47.109375 6.058594 C 47.105469 6.046875 47.109375 6.03125 47.121094 6.023438 C 47.132812 6.019531 47.148438 6.023438 47.15625 6.035156 L 47.164062 6.046875 C 47.167969 6.058594 47.164062 6.074219 47.152344 6.082031 C 47.148438 6.082031 47.144531 6.085938 47.140625 6.085938 Z M 50.042969 6.015625 C 50.039062 6.015625 50.035156 6.015625 50.03125 6.011719 C 50.019531 6.003906 50.011719 5.988281 50.019531 5.976562 L 50.023438 5.964844 C 50.03125 5.953125 50.046875 5.949219 50.058594 5.953125 C 50.074219 5.960938 50.078125 5.976562 50.070312 5.988281 L 50.066406 6 C 50.0625 6.007812 50.050781 6.015625 50.042969 6.015625 Z M 47.097656 6.003906 C 47.089844 6.003906 47.082031 6 47.078125 5.988281 L 47.070312 5.976562 C 47.066406 5.964844 47.070312 5.949219 47.082031 5.945312 C 47.097656 5.9375 47.113281 5.945312 47.117188 5.957031 L 47.121094 5.96875 C 47.128906 5.980469 47.125 5.996094 47.109375 6.003906 C 47.105469 6.003906 47.101562 6.003906 47.097656 6.003906 Z M 50.078125 5.933594 C 50.078125 5.933594 50.074219 5.933594 50.070312 5.929688 C 50.054688 5.925781 50.050781 5.910156 50.054688 5.898438 L 50.0625 5.886719 C 50.066406 5.871094 50.082031 5.867188 50.09375 5.871094 C 50.109375 5.875 50.113281 5.890625 50.109375 5.90625 L 50.105469 5.917969 C 50.097656 5.925781 50.089844 5.933594 50.078125 5.933594 Z M 47.0625 5.921875 C 47.054688 5.921875 47.042969 5.917969 47.039062 5.90625 L 47.035156 5.894531 C 47.03125 5.882812 47.035156 5.867188 47.050781 5.859375 C 47.0625 5.855469 47.078125 5.863281 47.082031 5.875 L 47.085938 5.886719 C 47.09375 5.898438 47.085938 5.914062 47.074219 5.921875 C 47.070312 5.921875 47.066406 5.921875 47.0625 5.921875 Z M 50.113281 5.847656 C 50.109375 5.847656 50.105469 5.847656 50.101562 5.847656 C 50.089844 5.84375 50.082031 5.828125 50.085938 5.8125 L 50.09375 5.800781 C 50.097656 5.789062 50.109375 5.78125 50.125 5.785156 C 50.136719 5.789062 50.144531 5.804688 50.140625 5.820312 L 50.136719 5.832031 C 50.132812 5.839844 50.121094 5.847656 50.113281 5.847656 Z M 47.03125 5.839844 C 47.019531 5.839844 47.011719 5.832031 47.007812 5.820312 L 47.003906 5.808594 C 47 5.796875 47.007812 5.78125 47.019531 5.777344 C 47.03125 5.773438 47.046875 5.777344 47.050781 5.792969 L 47.054688 5.804688 C 47.0625 5.816406 47.054688 5.832031 47.039062 5.835938 C 47.039062 5.839844 47.035156 5.839844 47.03125 5.839844 Z M 50.140625 5.761719 C 50.136719 5.761719 50.132812 5.761719 50.132812 5.761719 C 50.117188 5.757812 50.109375 5.742188 50.113281 5.730469 L 50.117188 5.71875 C 50.121094 5.703125 50.136719 5.695312 50.148438 5.699219 C 50.164062 5.703125 50.171875 5.71875 50.167969 5.730469 L 50.164062 5.746094 C 50.160156 5.753906 50.152344 5.761719 50.140625 5.761719 Z M 47.003906 5.753906 C 46.992188 5.753906 46.984375 5.746094 46.980469 5.734375 L 46.976562 5.722656 C 46.972656 5.707031 46.980469 5.695312 46.996094 5.691406 C 47.007812 5.6875 47.023438 5.695312 47.027344 5.707031 L 47.03125 5.71875 C 47.035156 5.734375 47.027344 5.746094 47.011719 5.75 C 47.007812 5.753906 47.007812 5.753906 47.003906 5.753906 Z M 50.164062 5.675781 C 50.160156 5.675781 50.160156 5.675781 50.15625 5.675781 C 50.140625 5.671875 50.132812 5.660156 50.136719 5.644531 L 50.140625 5.632812 C 50.144531 5.617188 50.15625 5.609375 50.171875 5.613281 C 50.183594 5.617188 50.191406 5.628906 50.191406 5.644531 L 50.1875 5.65625 C 50.183594 5.667969 50.175781 5.675781 50.164062 5.675781 Z M 46.984375 5.664062 C 46.972656 5.664062 46.960938 5.65625 46.957031 5.644531 L 46.953125 5.632812 C 46.953125 5.617188 46.960938 5.605469 46.972656 5.601562 C 46.988281 5.597656 47.003906 5.609375 47.003906 5.621094 L 47.007812 5.632812 C 47.011719 5.648438 47.003906 5.660156 46.988281 5.664062 C 46.988281 5.664062 46.984375 5.664062 46.984375 5.664062 Z M 50.179688 5.585938 C 50.179688 5.585938 50.175781 5.585938 50.175781 5.585938 C 50.160156 5.585938 50.152344 5.570312 50.15625 5.558594 L 50.15625 5.546875 C 50.160156 5.53125 50.171875 5.523438 50.1875 5.523438 C 50.199219 5.527344 50.210938 5.539062 50.207031 5.554688 L 50.207031 5.566406 C 50.203125 5.578125 50.191406 5.585938 50.179688 5.585938 Z M 46.964844 5.578125 C 46.953125 5.578125 46.941406 5.570312 46.941406 5.554688 L 46.9375 5.542969 C 46.9375 5.527344 46.945312 5.515625 46.960938 5.511719 C 46.972656 5.511719 46.988281 5.519531 46.988281 5.535156 L 46.992188 5.546875 C 46.992188 5.5625 46.984375 5.574219 46.96875 5.578125 C 46.96875 5.578125 46.96875 5.578125 46.964844 5.578125 Z M 50.191406 5.5 C 50.175781 5.496094 50.164062 5.484375 50.167969 5.46875 L 50.167969 5.457031 C 50.171875 5.445312 50.183594 5.433594 50.195312 5.433594 C 50.210938 5.4375 50.222656 5.449219 50.21875 5.464844 L 50.21875 5.476562 C 50.21875 5.488281 50.207031 5.5 50.191406 5.5 Z M 46.953125 5.488281 C 46.941406 5.488281 46.929688 5.480469 46.925781 5.464844 L 46.925781 5.453125 C 46.925781 5.4375 46.933594 5.425781 46.949219 5.425781 C 46.964844 5.421875 46.976562 5.433594 46.976562 5.449219 L 46.980469 5.460938 C 46.980469 5.472656 46.96875 5.488281 46.957031 5.488281 C 46.953125 5.488281 46.953125 5.488281 46.953125 5.488281 Z M 50.199219 5.410156 C 50.183594 5.410156 50.175781 5.394531 50.175781 5.382812 L 50.175781 5.371094 C 50.175781 5.355469 50.1875 5.34375 50.203125 5.34375 C 50.21875 5.347656 50.226562 5.359375 50.226562 5.371094 L 50.226562 5.386719 C 50.226562 5.398438 50.214844 5.410156 50.199219 5.410156 Z M 46.945312 5.398438 C 46.933594 5.398438 46.921875 5.386719 46.921875 5.375 L 46.917969 5.363281 C 46.917969 5.347656 46.929688 5.335938 46.945312 5.335938 C 46.957031 5.332031 46.96875 5.34375 46.972656 5.359375 L 46.972656 5.371094 C 46.972656 5.386719 46.960938 5.398438 46.945312 5.398438 Z M 50.203125 5.320312 C 50.191406 5.320312 50.179688 5.308594 50.179688 5.292969 L 50.179688 5.277344 C 50.179688 5.261719 50.191406 5.25 50.203125 5.25 C 50.21875 5.25 50.230469 5.261719 50.230469 5.277344 L 50.230469 5.292969 C 50.230469 5.308594 50.21875 5.320312 50.203125 5.320312 Z M 46.941406 5.308594 C 46.929688 5.308594 46.917969 5.296875 46.917969 5.285156 L 46.917969 5.269531 C 46.917969 5.257812 46.929688 5.246094 46.945312 5.246094 C 46.957031 5.246094 46.96875 5.257812 46.96875 5.269531 L 46.96875 5.28125 C 46.96875 5.296875 46.957031 5.308594 46.941406 5.308594 Z M 50.203125 5.226562 C 50.1875 5.226562 50.175781 5.214844 50.175781 5.199219 L 50.175781 5.1875 C 50.175781 5.175781 50.1875 5.160156 50.199219 5.160156 C 50.214844 5.160156 50.226562 5.171875 50.226562 5.183594 L 50.226562 5.199219 C 50.226562 5.210938 50.21875 5.222656 50.203125 5.226562 Z M 46.945312 5.21875 C 46.929688 5.21875 46.917969 5.207031 46.917969 5.191406 L 46.921875 5.179688 C 46.921875 5.164062 46.933594 5.15625 46.949219 5.15625 C 46.960938 5.15625 46.972656 5.167969 46.972656 5.183594 L 46.972656 5.195312 C 46.96875 5.207031 46.960938 5.21875 46.945312 5.21875 Z M 50.195312 5.136719 C 50.183594 5.136719 50.171875 5.125 50.167969 5.113281 L 50.167969 5.101562 C 50.167969 5.085938 50.175781 5.074219 50.191406 5.070312 C 50.203125 5.070312 50.21875 5.082031 50.21875 5.09375 L 50.222656 5.105469 C 50.222656 5.121094 50.210938 5.132812 50.199219 5.136719 C 50.195312 5.136719 50.195312 5.136719 50.195312 5.136719 Z M 46.953125 5.128906 C 46.953125 5.128906 46.949219 5.128906 46.949219 5.128906 C 46.9375 5.128906 46.925781 5.117188 46.925781 5.101562 L 46.929688 5.089844 C 46.929688 5.074219 46.941406 5.0625 46.957031 5.066406 C 46.972656 5.066406 46.980469 5.082031 46.980469 5.09375 L 46.976562 5.105469 C 46.976562 5.121094 46.964844 5.128906 46.953125 5.128906 Z M 50.183594 5.046875 C 50.171875 5.046875 50.160156 5.039062 50.15625 5.023438 L 50.15625 5.011719 C 50.152344 5 50.164062 4.984375 50.175781 4.984375 C 50.191406 4.980469 50.203125 4.988281 50.207031 5.003906 L 50.207031 5.015625 C 50.210938 5.03125 50.203125 5.042969 50.1875 5.046875 C 50.1875 5.046875 50.183594 5.046875 50.183594 5.046875 Z M 46.964844 5.039062 C 46.964844 5.039062 46.960938 5.039062 46.960938 5.039062 C 46.945312 5.039062 46.9375 5.023438 46.9375 5.011719 L 46.941406 5 C 46.945312 4.984375 46.957031 4.976562 46.972656 4.976562 C 46.984375 4.980469 46.996094 4.992188 46.992188 5.007812 L 46.988281 5.019531 C 46.988281 5.03125 46.976562 5.039062 46.964844 5.039062 Z M 50.167969 4.957031 C 50.15625 4.957031 50.144531 4.949219 50.140625 4.9375 L 50.140625 4.925781 C 50.136719 4.910156 50.144531 4.898438 50.160156 4.894531 C 50.171875 4.890625 50.1875 4.902344 50.1875 4.914062 L 50.191406 4.925781 C 50.195312 4.941406 50.1875 4.953125 50.171875 4.957031 C 50.171875 4.957031 50.167969 4.957031 50.167969 4.957031 Z M 46.980469 4.953125 C 46.980469 4.953125 46.976562 4.953125 46.976562 4.953125 C 46.960938 4.949219 46.953125 4.933594 46.957031 4.921875 L 46.960938 4.910156 C 46.960938 4.894531 46.976562 4.886719 46.992188 4.890625 C 47.003906 4.894531 47.011719 4.90625 47.007812 4.921875 L 47.007812 4.933594 C 47.003906 4.945312 46.992188 4.953125 46.980469 4.953125 Z M 50.144531 4.871094 C 50.132812 4.871094 50.125 4.863281 50.121094 4.851562 L 50.117188 4.839844 C 50.113281 4.828125 50.121094 4.8125 50.132812 4.808594 C 50.148438 4.804688 50.164062 4.8125 50.167969 4.824219 L 50.171875 4.839844 C 50.175781 4.851562 50.164062 4.867188 50.152344 4.871094 C 50.148438 4.871094 50.148438 4.871094 50.144531 4.871094 Z M 47.003906 4.867188 C 47 4.867188 47 4.867188 46.996094 4.863281 C 46.984375 4.859375 46.976562 4.847656 46.980469 4.832031 L 46.980469 4.820312 C 46.984375 4.808594 47 4.800781 47.015625 4.804688 C 47.027344 4.808594 47.035156 4.820312 47.03125 4.835938 L 47.027344 4.847656 C 47.023438 4.859375 47.015625 4.867188 47.003906 4.867188 Z M 50.117188 4.785156 C 50.109375 4.785156 50.097656 4.777344 50.09375 4.769531 L 50.089844 4.757812 C 50.085938 4.742188 50.09375 4.726562 50.105469 4.722656 C 50.121094 4.71875 50.132812 4.726562 50.140625 4.738281 L 50.144531 4.75 C 50.148438 4.765625 50.140625 4.78125 50.128906 4.785156 C 50.125 4.785156 50.121094 4.785156 50.117188 4.785156 Z M 47.03125 4.78125 C 47.027344 4.78125 47.023438 4.78125 47.023438 4.777344 C 47.007812 4.773438 47 4.757812 47.003906 4.746094 L 47.011719 4.734375 C 47.015625 4.71875 47.03125 4.714844 47.042969 4.71875 C 47.054688 4.722656 47.0625 4.738281 47.058594 4.75 L 47.054688 4.761719 C 47.050781 4.773438 47.039062 4.78125 47.03125 4.78125 Z M 50.085938 4.699219 C 50.078125 4.699219 50.066406 4.695312 50.0625 4.683594 L 50.058594 4.671875 C 50.054688 4.660156 50.058594 4.644531 50.074219 4.640625 C 50.085938 4.632812 50.101562 4.640625 50.105469 4.652344 L 50.113281 4.664062 C 50.117188 4.679688 50.109375 4.695312 50.097656 4.699219 C 50.09375 4.699219 50.089844 4.699219 50.085938 4.699219 Z M 47.0625 4.695312 C 47.058594 4.695312 47.054688 4.695312 47.050781 4.695312 C 47.039062 4.6875 47.03125 4.671875 47.039062 4.660156 L 47.042969 4.648438 C 47.046875 4.636719 47.0625 4.628906 47.078125 4.632812 C 47.089844 4.640625 47.097656 4.65625 47.089844 4.667969 L 47.085938 4.679688 C 47.082031 4.691406 47.070312 4.695312 47.0625 4.695312 Z M 50.050781 4.617188 C 50.042969 4.617188 50.03125 4.613281 50.027344 4.605469 L 50.023438 4.59375 C 50.015625 4.578125 50.023438 4.5625 50.035156 4.558594 C 50.046875 4.550781 50.0625 4.558594 50.070312 4.570312 L 50.074219 4.582031 C 50.082031 4.59375 50.074219 4.609375 50.0625 4.617188 C 50.058594 4.617188 50.054688 4.617188 50.050781 4.617188 Z M 47.097656 4.613281 C 47.09375 4.613281 47.089844 4.613281 47.085938 4.609375 C 47.074219 4.605469 47.066406 4.589844 47.074219 4.578125 L 47.082031 4.5625 C 47.085938 4.550781 47.101562 4.546875 47.113281 4.550781 C 47.128906 4.558594 47.132812 4.574219 47.125 4.585938 L 47.121094 4.597656 C 47.117188 4.609375 47.105469 4.613281 47.097656 4.613281 Z M 50.011719 4.539062 C 50.003906 4.539062 49.992188 4.535156 49.988281 4.523438 L 49.984375 4.515625 C 49.976562 4.5 49.980469 4.484375 49.992188 4.480469 C 50.007812 4.472656 50.023438 4.476562 50.027344 4.488281 L 50.035156 4.5 C 50.042969 4.511719 50.035156 4.527344 50.023438 4.535156 C 50.019531 4.539062 50.015625 4.539062 50.011719 4.539062 Z M 47.136719 4.53125 C 47.132812 4.53125 47.128906 4.53125 47.125 4.53125 C 47.113281 4.523438 47.109375 4.507812 47.117188 4.496094 L 47.121094 4.484375 C 47.128906 4.472656 47.144531 4.464844 47.15625 4.472656 C 47.167969 4.480469 47.175781 4.496094 47.167969 4.507812 L 47.160156 4.519531 C 47.15625 4.527344 47.148438 4.53125 47.136719 4.53125 Z M 49.96875 4.460938 C 49.957031 4.460938 49.949219 4.457031 49.945312 4.449219 L 49.9375 4.4375 C 49.929688 4.425781 49.933594 4.410156 49.949219 4.402344 C 49.960938 4.394531 49.976562 4.398438 49.984375 4.410156 L 49.988281 4.421875 C 49.996094 4.433594 49.992188 4.449219 49.980469 4.457031 C 49.976562 4.460938 49.972656 4.460938 49.96875 4.460938 Z M 47.183594 4.453125 C 47.179688 4.453125 47.175781 4.453125 47.167969 4.449219 C 47.15625 4.445312 47.152344 4.429688 47.160156 4.414062 L 47.167969 4.40625 C 47.175781 4.390625 47.191406 4.390625 47.203125 4.394531 C 47.214844 4.402344 47.21875 4.417969 47.210938 4.433594 L 47.207031 4.441406 C 47.199219 4.449219 47.191406 4.453125 47.183594 4.453125 Z M 49.917969 4.386719 C 49.910156 4.386719 49.902344 4.382812 49.898438 4.375 L 49.890625 4.363281 C 49.882812 4.351562 49.886719 4.335938 49.898438 4.328125 C 49.910156 4.320312 49.925781 4.324219 49.933594 4.335938 L 49.941406 4.34375 C 49.949219 4.355469 49.945312 4.371094 49.933594 4.382812 C 49.929688 4.382812 49.925781 4.386719 49.917969 4.386719 Z M 47.230469 4.378906 C 47.226562 4.378906 47.222656 4.378906 47.21875 4.375 C 47.207031 4.367188 47.203125 4.351562 47.210938 4.339844 L 47.21875 4.328125 C 47.226562 4.316406 47.242188 4.3125 47.253906 4.320312 C 47.265625 4.332031 47.269531 4.347656 47.261719 4.359375 L 47.253906 4.367188 C 47.25 4.375 47.242188 4.378906 47.230469 4.378906 Z M 49.867188 4.3125 C 49.859375 4.3125 49.851562 4.308594 49.84375 4.300781 L 49.839844 4.292969 C 49.828125 4.28125 49.832031 4.265625 49.84375 4.257812 C 49.855469 4.246094 49.871094 4.25 49.878906 4.261719 L 49.886719 4.269531 C 49.894531 4.28125 49.894531 4.300781 49.882812 4.308594 C 49.878906 4.3125 49.871094 4.3125 49.867188 4.3125 Z M 47.285156 4.308594 C 47.28125 4.308594 47.273438 4.304688 47.269531 4.300781 C 47.257812 4.292969 47.257812 4.277344 47.265625 4.265625 L 47.273438 4.253906 C 47.28125 4.242188 47.296875 4.242188 47.308594 4.25 C 47.320312 4.261719 47.324219 4.277344 47.3125 4.289062 L 47.304688 4.296875 C 47.300781 4.304688 47.292969 4.308594 47.285156 4.308594 Z M 49.808594 4.242188 C 49.800781 4.242188 49.796875 4.238281 49.789062 4.234375 L 49.78125 4.226562 C 49.773438 4.214844 49.773438 4.199219 49.785156 4.1875 C 49.792969 4.179688 49.8125 4.179688 49.820312 4.191406 L 49.828125 4.199219 C 49.835938 4.210938 49.835938 4.226562 49.824219 4.238281 C 49.820312 4.242188 49.816406 4.242188 49.808594 4.242188 Z M 47.34375 4.238281 C 47.335938 4.238281 47.332031 4.234375 47.324219 4.230469 C 47.316406 4.222656 47.3125 4.207031 47.324219 4.195312 L 47.332031 4.183594 C 47.339844 4.175781 47.359375 4.171875 47.367188 4.183594 C 47.378906 4.191406 47.378906 4.207031 47.371094 4.21875 L 47.363281 4.230469 C 47.355469 4.234375 47.351562 4.238281 47.34375 4.238281 Z M 49.75 4.175781 C 49.742188 4.175781 49.734375 4.175781 49.730469 4.167969 L 49.722656 4.160156 C 49.710938 4.148438 49.710938 4.132812 49.722656 4.125 C 49.730469 4.113281 49.75 4.113281 49.757812 4.125 L 49.765625 4.132812 C 49.777344 4.144531 49.777344 4.160156 49.765625 4.167969 C 49.761719 4.175781 49.753906 4.175781 49.75 4.175781 Z M 47.402344 4.171875 C 47.398438 4.171875 47.390625 4.167969 47.386719 4.164062 C 47.375 4.15625 47.375 4.136719 47.386719 4.128906 L 47.394531 4.117188 C 47.402344 4.109375 47.421875 4.109375 47.429688 4.117188 C 47.441406 4.128906 47.441406 4.144531 47.429688 4.15625 L 47.421875 4.164062 C 47.417969 4.167969 47.410156 4.171875 47.402344 4.171875 Z M 49.683594 4.113281 C 49.679688 4.113281 49.671875 4.113281 49.667969 4.105469 L 49.65625 4.097656 C 49.648438 4.089844 49.648438 4.074219 49.65625 4.0625 C 49.667969 4.050781 49.683594 4.050781 49.691406 4.058594 L 49.703125 4.070312 C 49.710938 4.078125 49.714844 4.09375 49.703125 4.105469 C 49.699219 4.109375 49.691406 4.113281 49.683594 4.113281 Z M 47.46875 4.109375 C 47.460938 4.109375 47.453125 4.105469 47.449219 4.101562 C 47.4375 4.089844 47.441406 4.074219 47.449219 4.0625 L 47.460938 4.054688 C 47.46875 4.046875 47.488281 4.046875 47.496094 4.058594 C 47.503906 4.066406 47.503906 4.082031 47.496094 4.09375 L 47.484375 4.101562 C 47.480469 4.105469 47.472656 4.109375 47.46875 4.109375 Z M 49.617188 4.054688 C 49.613281 4.054688 49.605469 4.050781 49.601562 4.046875 L 49.589844 4.039062 C 49.582031 4.03125 49.578125 4.015625 49.585938 4.003906 C 49.597656 3.992188 49.613281 3.992188 49.625 4 L 49.632812 4.007812 C 49.644531 4.019531 49.644531 4.035156 49.636719 4.046875 C 49.632812 4.050781 49.625 4.054688 49.617188 4.054688 Z M 47.535156 4.050781 C 47.527344 4.050781 47.519531 4.046875 47.515625 4.039062 C 47.507812 4.03125 47.507812 4.011719 47.519531 4.003906 L 47.527344 3.996094 C 47.539062 3.988281 47.554688 3.988281 47.566406 4 C 47.574219 4.011719 47.574219 4.027344 47.5625 4.035156 L 47.550781 4.042969 C 47.546875 4.046875 47.542969 4.050781 47.535156 4.050781 Z M 49.546875 4 C 49.542969 4 49.535156 3.996094 49.53125 3.992188 L 49.519531 3.984375 C 49.511719 3.976562 49.507812 3.960938 49.515625 3.949219 C 49.523438 3.9375 49.539062 3.9375 49.550781 3.945312 L 49.5625 3.953125 C 49.574219 3.960938 49.574219 3.976562 49.566406 3.988281 C 49.5625 3.996094 49.554688 4 49.546875 4 Z M 47.605469 3.996094 C 47.597656 3.996094 47.589844 3.992188 47.585938 3.984375 C 47.578125 3.972656 47.578125 3.957031 47.589844 3.949219 L 47.601562 3.941406 C 47.613281 3.933594 47.628906 3.933594 47.636719 3.945312 C 47.644531 3.957031 47.644531 3.972656 47.632812 3.980469 L 47.621094 3.988281 C 47.617188 3.992188 47.613281 3.996094 47.605469 3.996094 Z M 49.472656 3.945312 C 49.46875 3.945312 49.464844 3.945312 49.460938 3.941406 L 49.449219 3.9375 C 49.4375 3.929688 49.433594 3.910156 49.441406 3.898438 C 49.449219 3.886719 49.464844 3.886719 49.476562 3.894531 L 49.488281 3.898438 C 49.5 3.90625 49.503906 3.921875 49.496094 3.933594 C 49.488281 3.941406 49.480469 3.945312 49.472656 3.945312 Z M 47.679688 3.941406 C 47.671875 3.941406 47.664062 3.9375 47.65625 3.929688 C 47.648438 3.917969 47.652344 3.902344 47.664062 3.894531 L 47.675781 3.890625 C 47.6875 3.882812 47.703125 3.882812 47.710938 3.894531 C 47.71875 3.910156 47.714844 3.925781 47.703125 3.933594 L 47.695312 3.9375 C 47.6875 3.941406 47.683594 3.941406 47.679688 3.941406 Z M 49.398438 3.898438 C 49.394531 3.898438 49.386719 3.898438 49.382812 3.894531 L 49.375 3.890625 C 49.359375 3.882812 49.355469 3.867188 49.363281 3.855469 C 49.371094 3.84375 49.386719 3.835938 49.398438 3.84375 L 49.410156 3.851562 C 49.421875 3.859375 49.425781 3.875 49.417969 3.886719 C 49.414062 3.894531 49.40625 3.898438 49.398438 3.898438 Z M 47.757812 3.894531 C 47.746094 3.894531 47.738281 3.890625 47.734375 3.882812 C 47.726562 3.871094 47.730469 3.855469 47.742188 3.847656 L 47.753906 3.839844 C 47.765625 3.835938 47.78125 3.839844 47.789062 3.851562 C 47.796875 3.863281 47.792969 3.878906 47.78125 3.886719 L 47.769531 3.890625 C 47.765625 3.894531 47.761719 3.894531 47.757812 3.894531 Z M 49.316406 3.855469 C 49.3125 3.855469 49.308594 3.855469 49.304688 3.851562 L 49.296875 3.847656 C 49.28125 3.839844 49.277344 3.824219 49.285156 3.8125 C 49.289062 3.800781 49.304688 3.796875 49.320312 3.800781 L 49.332031 3.808594 C 49.34375 3.8125 49.347656 3.828125 49.339844 3.84375 C 49.335938 3.851562 49.328125 3.855469 49.316406 3.855469 Z M 47.835938 3.851562 C 47.824219 3.851562 47.816406 3.847656 47.8125 3.839844 C 47.804688 3.828125 47.808594 3.8125 47.824219 3.804688 L 47.835938 3.796875 C 47.847656 3.792969 47.863281 3.796875 47.871094 3.808594 C 47.875 3.824219 47.871094 3.839844 47.859375 3.84375 L 47.847656 3.851562 C 47.84375 3.851562 47.839844 3.851562 47.835938 3.851562 Z M 49.238281 3.816406 C 49.234375 3.816406 49.230469 3.816406 49.226562 3.816406 L 49.214844 3.808594 C 49.203125 3.804688 49.195312 3.789062 49.203125 3.777344 C 49.207031 3.761719 49.222656 3.757812 49.234375 3.761719 L 49.246094 3.769531 C 49.261719 3.773438 49.265625 3.789062 49.261719 3.800781 C 49.257812 3.8125 49.246094 3.816406 49.238281 3.816406 Z M 47.914062 3.816406 C 47.90625 3.816406 47.894531 3.808594 47.890625 3.800781 C 47.886719 3.785156 47.890625 3.769531 47.90625 3.765625 L 47.917969 3.761719 C 47.929688 3.753906 47.945312 3.761719 47.949219 3.773438 C 47.957031 3.785156 47.949219 3.800781 47.9375 3.808594 L 47.925781 3.8125 C 47.921875 3.8125 47.917969 3.816406 47.914062 3.816406 Z M 49.152344 3.78125 C 49.152344 3.78125 49.148438 3.78125 49.144531 3.78125 L 49.132812 3.777344 C 49.121094 3.773438 49.113281 3.757812 49.117188 3.742188 C 49.121094 3.730469 49.136719 3.722656 49.152344 3.726562 L 49.164062 3.734375 C 49.175781 3.738281 49.183594 3.753906 49.179688 3.765625 C 49.175781 3.777344 49.164062 3.78125 49.152344 3.78125 Z M 48 3.78125 C 47.988281 3.78125 47.976562 3.773438 47.972656 3.765625 C 47.96875 3.75 47.976562 3.734375 47.988281 3.730469 L 48 3.726562 C 48.015625 3.722656 48.03125 3.726562 48.035156 3.742188 C 48.039062 3.753906 48.03125 3.769531 48.019531 3.773438 L 48.007812 3.777344 C 48.003906 3.78125 48 3.78125 48 3.78125 Z M 49.070312 3.753906 C 49.066406 3.753906 49.0625 3.753906 49.0625 3.75 L 49.050781 3.75 C 49.035156 3.742188 49.027344 3.730469 49.03125 3.714844 C 49.035156 3.703125 49.050781 3.695312 49.0625 3.699219 L 49.078125 3.703125 C 49.089844 3.707031 49.097656 3.722656 49.09375 3.734375 C 49.089844 3.746094 49.078125 3.753906 49.070312 3.753906 Z M 48.082031 3.75 C 48.074219 3.75 48.0625 3.746094 48.058594 3.734375 C 48.054688 3.71875 48.0625 3.707031 48.074219 3.699219 L 48.089844 3.695312 C 48.101562 3.691406 48.117188 3.699219 48.121094 3.714844 C 48.125 3.726562 48.117188 3.742188 48.101562 3.746094 L 48.089844 3.75 C 48.089844 3.75 48.085938 3.75 48.082031 3.75 Z M 48.984375 3.726562 C 48.980469 3.726562 48.976562 3.726562 48.976562 3.726562 L 48.964844 3.722656 C 48.949219 3.722656 48.941406 3.707031 48.945312 3.691406 C 48.949219 3.679688 48.960938 3.671875 48.976562 3.675781 L 48.988281 3.675781 C 49.003906 3.679688 49.011719 3.695312 49.007812 3.707031 C 49.003906 3.71875 48.992188 3.726562 48.984375 3.726562 Z M 48.167969 3.726562 C 48.160156 3.726562 48.148438 3.71875 48.144531 3.707031 C 48.140625 3.695312 48.148438 3.679688 48.164062 3.675781 L 48.175781 3.671875 C 48.191406 3.667969 48.203125 3.679688 48.207031 3.691406 C 48.210938 3.707031 48.203125 3.71875 48.1875 3.722656 L 48.175781 3.726562 C 48.175781 3.726562 48.171875 3.726562 48.167969 3.726562 Z M 48.894531 3.707031 C 48.894531 3.707031 48.890625 3.707031 48.890625 3.707031 L 48.878906 3.707031 C 48.863281 3.703125 48.855469 3.6875 48.855469 3.675781 C 48.859375 3.660156 48.875 3.652344 48.886719 3.65625 L 48.898438 3.65625 C 48.914062 3.660156 48.921875 3.671875 48.921875 3.6875 C 48.917969 3.699219 48.90625 3.707031 48.894531 3.707031 Z M 48.257812 3.707031 C 48.246094 3.707031 48.234375 3.699219 48.230469 3.6875 C 48.230469 3.671875 48.238281 3.660156 48.253906 3.65625 L 48.265625 3.652344 C 48.28125 3.652344 48.292969 3.660156 48.296875 3.675781 C 48.296875 3.6875 48.289062 3.703125 48.273438 3.703125 L 48.261719 3.707031 C 48.261719 3.707031 48.257812 3.707031 48.257812 3.707031 Z M 48.804688 3.691406 L 48.789062 3.691406 C 48.777344 3.6875 48.765625 3.675781 48.769531 3.660156 C 48.769531 3.648438 48.78125 3.636719 48.796875 3.640625 L 48.808594 3.640625 C 48.824219 3.644531 48.835938 3.65625 48.832031 3.671875 C 48.832031 3.683594 48.820312 3.691406 48.804688 3.691406 Z M 48.347656 3.691406 C 48.332031 3.691406 48.324219 3.683594 48.320312 3.671875 C 48.320312 3.65625 48.328125 3.644531 48.34375 3.640625 L 48.355469 3.640625 C 48.371094 3.636719 48.382812 3.648438 48.382812 3.660156 C 48.386719 3.675781 48.375 3.6875 48.363281 3.691406 L 48.351562 3.691406 C 48.347656 3.691406 48.347656 3.691406 48.347656 3.691406 Z M 48.71875 3.683594 C 48.714844 3.683594 48.714844 3.683594 48.714844 3.683594 L 48.703125 3.679688 C 48.6875 3.679688 48.675781 3.667969 48.679688 3.652344 C 48.679688 3.640625 48.691406 3.628906 48.707031 3.628906 L 48.71875 3.632812 C 48.734375 3.632812 48.746094 3.644531 48.742188 3.660156 C 48.742188 3.671875 48.730469 3.683594 48.71875 3.683594 Z M 48.433594 3.683594 C 48.421875 3.683594 48.410156 3.671875 48.410156 3.660156 C 48.410156 3.644531 48.417969 3.632812 48.433594 3.628906 L 48.445312 3.628906 C 48.460938 3.628906 48.472656 3.640625 48.472656 3.652344 C 48.476562 3.667969 48.464844 3.679688 48.449219 3.679688 L 48.4375 3.683594 C 48.4375 3.683594 48.4375 3.683594 48.433594 3.683594 Z M 48.628906 3.675781 C 48.628906 3.675781 48.628906 3.675781 48.625 3.675781 L 48.613281 3.675781 C 48.601562 3.675781 48.589844 3.664062 48.589844 3.652344 C 48.589844 3.636719 48.601562 3.625 48.617188 3.625 L 48.628906 3.625 C 48.644531 3.625 48.652344 3.636719 48.652344 3.652344 C 48.652344 3.667969 48.640625 3.675781 48.628906 3.675781 Z M 48.523438 3.675781 C 48.511719 3.675781 48.5 3.667969 48.5 3.652344 C 48.5 3.636719 48.511719 3.625 48.523438 3.625 L 48.539062 3.625 C 48.550781 3.625 48.5625 3.636719 48.5625 3.652344 C 48.5625 3.664062 48.550781 3.675781 48.539062 3.675781 L 48.527344 3.675781 C 48.527344 3.675781 48.523438 3.675781 48.523438 3.675781 Z M 48.523438 3.675781 " fill-opacity="1" fill-rule="nonzero"/></g></svg>