<svg xmlns="http://www.w3.org/2000/svg" xmlns:xlink="http://www.w3.org/1999/xlink" width="100" zoomAndPan="magnify" viewBox="0 0 75 74.999997" height="100" preserveAspectRatio="xMidYMid meet" version="1.0"><defs><g/><clipPath id="21527b475b"><rect x="0" width="33" y="0" height="69"/></clipPath><clipPath id="b25d12d9ff"><path d="M 37.5 2.773438 L 40.5 2.773438 L 40.5 5.773438 L 37.5 5.773438 Z M 37.5 2.773438 " clip-rule="nonzero"/></clipPath></defs><g transform="matrix(1, 0, 0, 1, 21, 6)"><g clip-path="url(#21527b475b)"><g fill="#2b2b2b" fill-opacity="1"><g transform="translate(0.124396, 32.784113)"><g><path d="M 0.953125 -15.734375 C 0.953125 -18.234375 1.175781 -20.507812 1.625 -22.5625 C 2.070312 -24.625 2.710938 -26.410156 3.546875 -27.921875 C 4.378906 -29.429688 5.363281 -30.597656 6.5 -31.421875 C 7.644531 -32.242188 8.910156 -32.65625 10.296875 -32.65625 C 10.867188 -32.65625 11.40625 -32.535156 11.90625 -32.296875 C 12.414062 -32.066406 12.898438 -31.832031 13.359375 -31.59375 C 13.816406 -31.363281 14.25 -31.25 14.65625 -31.25 C 14.96875 -31.25 15.257812 -31.300781 15.53125 -31.40625 C 15.8125 -31.507812 16.101562 -31.710938 16.40625 -32.015625 L 16.53125 -32.015625 C 16.53125 -31.097656 16.242188 -30.363281 15.671875 -29.8125 C 15.097656 -29.257812 14.375 -28.984375 13.5 -28.984375 C 12.769531 -28.984375 12.140625 -29.082031 11.609375 -29.28125 C 11.078125 -29.476562 10.585938 -29.710938 10.140625 -29.984375 C 9.691406 -30.253906 9.25 -30.488281 8.8125 -30.6875 C 8.375 -30.894531 7.878906 -31 7.328125 -31 C 6.859375 -31 6.421875 -30.707031 6.015625 -30.125 C 5.609375 -29.550781 5.238281 -28.789062 4.90625 -27.84375 C 4.570312 -26.894531 4.285156 -25.851562 4.046875 -24.71875 C 3.816406 -23.59375 3.640625 -22.460938 3.515625 -21.328125 C 3.390625 -20.203125 3.328125 -19.171875 3.328125 -18.234375 C 3.328125 -17.847656 3.332031 -17.457031 3.34375 -17.0625 C 3.351562 -16.664062 3.367188 -16.273438 3.390625 -15.890625 C 3.671875 -17.171875 4.175781 -18.375 4.90625 -19.5 C 5.644531 -20.632812 6.550781 -21.550781 7.625 -22.25 C 8.707031 -22.957031 9.875 -23.3125 11.125 -23.3125 C 11.613281 -23.3125 12.019531 -23.28125 12.34375 -23.21875 C 12.664062 -23.15625 13 -23.039062 13.34375 -22.875 L 13.34375 -19.921875 C 12.800781 -20.265625 12.265625 -20.515625 11.734375 -20.671875 C 11.203125 -20.835938 10.570312 -20.921875 9.84375 -20.921875 C 8.4375 -20.921875 7.226562 -20.507812 6.21875 -19.6875 C 5.207031 -18.863281 4.484375 -17.773438 4.046875 -16.421875 C 3.609375 -15.066406 3.53125 -13.570312 3.8125 -11.9375 L 3.8125 -11.96875 C 4.144531 -9.832031 4.632812 -7.894531 5.28125 -6.15625 C 5.9375 -4.414062 6.742188 -3.035156 7.703125 -2.015625 C 8.660156 -0.992188 9.75 -0.484375 10.96875 -0.484375 C 11.632812 -0.484375 12.257812 -0.648438 12.84375 -0.984375 C 13.425781 -1.328125 13.914062 -1.800781 14.3125 -2.40625 C 14.707031 -3.019531 14.925781 -3.703125 14.96875 -4.453125 C 15.007812 -5.085938 14.875 -5.695312 14.5625 -6.28125 C 14.257812 -6.875 13.898438 -7.46875 13.484375 -8.0625 C 13.066406 -8.65625 12.695312 -9.269531 12.375 -9.90625 C 12.050781 -10.550781 11.890625 -11.257812 11.890625 -12.03125 C 11.890625 -12.769531 12.09375 -13.4375 12.5 -14.03125 C 12.90625 -14.632812 13.441406 -14.9375 14.109375 -14.9375 C 14.023438 -14.789062 13.957031 -14.644531 13.90625 -14.5 C 13.863281 -14.363281 13.84375 -14.175781 13.84375 -13.9375 C 13.84375 -13.40625 13.976562 -12.878906 14.25 -12.359375 C 14.519531 -11.835938 14.832031 -11.300781 15.1875 -10.75 C 15.550781 -10.195312 15.863281 -9.609375 16.125 -8.984375 C 16.394531 -8.367188 16.53125 -7.707031 16.53125 -7 C 16.53125 -5.695312 16.28125 -4.460938 15.78125 -3.296875 C 15.28125 -2.140625 14.566406 -1.191406 13.640625 -0.453125 C 12.710938 0.273438 11.609375 0.640625 10.328125 0.640625 C 9.023438 0.640625 7.804688 0.257812 6.671875 -0.5 C 5.546875 -1.269531 4.550781 -2.367188 3.6875 -3.796875 C 2.832031 -5.234375 2.160156 -6.957031 1.671875 -8.96875 C 1.191406 -10.988281 0.953125 -13.242188 0.953125 -15.734375 Z M 0.953125 -15.734375 "/></g></g></g><g fill="#2b2b2b" fill-opacity="1"><g transform="translate(16.657841, 32.784113)"><g><path d="M 1.765625 -25.328125 C 1.765625 -26.460938 1.757812 -27.429688 1.75 -28.234375 C 1.738281 -29.046875 1.65625 -29.742188 1.5 -30.328125 C 1.351562 -30.921875 1.066406 -31.429688 0.640625 -31.859375 L 0.640625 -31.984375 L 4.25 -31.984375 C 5.0625 -31.984375 5.9375 -32.082031 6.875 -32.28125 C 7.8125 -32.488281 8.789062 -32.59375 9.8125 -32.59375 C 10.925781 -32.59375 11.875 -32.273438 12.65625 -31.640625 C 13.445312 -31.015625 14.054688 -30.203125 14.484375 -29.203125 C 14.910156 -28.203125 15.125 -27.125 15.125 -25.96875 C 15.125 -24.664062 15.003906 -23.4375 14.765625 -22.28125 C 14.535156 -21.132812 14.300781 -20.046875 14.0625 -19.015625 C 13.832031 -17.984375 13.71875 -16.960938 13.71875 -15.953125 C 13.71875 -14.972656 13.832031 -13.960938 14.0625 -12.921875 C 14.300781 -11.878906 14.535156 -10.785156 14.765625 -9.640625 C 15.003906 -8.503906 15.125 -7.273438 15.125 -5.953125 C 15.125 -4.796875 14.910156 -3.71875 14.484375 -2.71875 C 14.054688 -1.71875 13.445312 -0.898438 12.65625 -0.265625 C 11.875 0.359375 10.925781 0.671875 9.8125 0.671875 C 9.195312 0.671875 8.609375 0.628906 8.046875 0.546875 C 7.484375 0.460938 6.863281 0.363281 6.1875 0.25 C 5.519531 0.144531 4.71875 0.0703125 3.78125 0.03125 C 3.375 0.03125 3.132812 0.03125 3.0625 0.03125 C 3 0.03125 2.992188 0.03125 3.046875 0.03125 C 3.109375 0.03125 3.113281 0.0234375 3.0625 0.015625 C 3.019531 0.00390625 2.820312 0 2.46875 0 C 2.125 0 1.515625 0 0.640625 0 L 0.640625 -0.09375 C 1.066406 -0.519531 1.351562 -1.019531 1.5 -1.59375 C 1.65625 -2.175781 1.738281 -2.875 1.75 -3.6875 C 1.757812 -4.507812 1.765625 -5.476562 1.765625 -6.59375 Z M 4.28125 -28.90625 C 4.28125 -28.4375 4.28125 -28.109375 4.28125 -27.921875 C 4.28125 -27.734375 4.285156 -27.5625 4.296875 -27.40625 C 4.304688 -27.257812 4.3125 -27.039062 4.3125 -26.75 C 4.3125 -26.46875 4.3125 -25.992188 4.3125 -25.328125 L 4.3125 -6.59375 C 4.3125 -5.945312 4.3125 -5.484375 4.3125 -5.203125 C 4.3125 -4.929688 4.316406 -4.742188 4.328125 -4.640625 C 4.335938 -4.535156 4.34375 -4.414062 4.34375 -4.28125 C 4.34375 -4.15625 4.34375 -3.921875 4.34375 -3.578125 C 4.34375 -2.554688 4.625 -1.816406 5.1875 -1.359375 C 5.757812 -0.898438 6.441406 -0.671875 7.234375 -0.671875 C 8.128906 -0.671875 8.988281 -0.847656 9.8125 -1.203125 C 10.644531 -1.554688 11.328125 -2.109375 11.859375 -2.859375 C 12.398438 -3.617188 12.671875 -4.597656 12.671875 -5.796875 C 12.671875 -7.023438 12.546875 -8.203125 12.296875 -9.328125 C 12.054688 -10.460938 11.804688 -11.578125 11.546875 -12.671875 C 11.285156 -13.773438 11.15625 -14.867188 11.15625 -15.953125 C 11.15625 -17.066406 11.285156 -18.164062 11.546875 -19.25 C 11.804688 -20.34375 12.054688 -21.453125 12.296875 -22.578125 C 12.546875 -23.710938 12.671875 -24.894531 12.671875 -26.125 C 12.671875 -27.320312 12.398438 -28.296875 11.859375 -29.046875 C 11.328125 -29.804688 10.644531 -30.363281 9.8125 -30.71875 C 8.988281 -31.070312 8.128906 -31.25 7.234375 -31.25 C 6.378906 -31.25 5.671875 -31.109375 5.109375 -30.828125 C 4.554688 -30.554688 4.28125 -29.914062 4.28125 -28.90625 Z M 4.28125 -28.90625 "/></g></g></g><g fill="#2b2b2b" fill-opacity="1"><g transform="translate(0.124396, 60.840197)"><g><path d="M 0.953125 -15.734375 C 0.953125 -18.234375 1.175781 -20.507812 1.625 -22.5625 C 2.070312 -24.625 2.710938 -26.410156 3.546875 -27.921875 C 4.378906 -29.429688 5.363281 -30.597656 6.5 -31.421875 C 7.644531 -32.242188 8.910156 -32.65625 10.296875 -32.65625 C 10.867188 -32.65625 11.40625 -32.535156 11.90625 -32.296875 C 12.414062 -32.066406 12.898438 -31.832031 13.359375 -31.59375 C 13.816406 -31.363281 14.25 -31.25 14.65625 -31.25 C 14.96875 -31.25 15.257812 -31.300781 15.53125 -31.40625 C 15.8125 -31.507812 16.101562 -31.710938 16.40625 -32.015625 L 16.53125 -32.015625 C 16.53125 -31.097656 16.242188 -30.363281 15.671875 -29.8125 C 15.097656 -29.257812 14.375 -28.984375 13.5 -28.984375 C 12.769531 -28.984375 12.140625 -29.082031 11.609375 -29.28125 C 11.078125 -29.476562 10.585938 -29.710938 10.140625 -29.984375 C 9.691406 -30.253906 9.25 -30.488281 8.8125 -30.6875 C 8.375 -30.894531 7.878906 -31 7.328125 -31 C 6.859375 -31 6.421875 -30.707031 6.015625 -30.125 C 5.609375 -29.550781 5.238281 -28.789062 4.90625 -27.84375 C 4.570312 -26.894531 4.285156 -25.851562 4.046875 -24.71875 C 3.816406 -23.59375 3.640625 -22.460938 3.515625 -21.328125 C 3.390625 -20.203125 3.328125 -19.171875 3.328125 -18.234375 C 3.328125 -17.847656 3.332031 -17.457031 3.34375 -17.0625 C 3.351562 -16.664062 3.367188 -16.273438 3.390625 -15.890625 C 3.671875 -17.171875 4.175781 -18.375 4.90625 -19.5 C 5.644531 -20.632812 6.550781 -21.550781 7.625 -22.25 C 8.707031 -22.957031 9.875 -23.3125 11.125 -23.3125 C 11.613281 -23.3125 12.019531 -23.28125 12.34375 -23.21875 C 12.664062 -23.15625 13 -23.039062 13.34375 -22.875 L 13.34375 -19.921875 C 12.800781 -20.265625 12.265625 -20.515625 11.734375 -20.671875 C 11.203125 -20.835938 10.570312 -20.921875 9.84375 -20.921875 C 8.4375 -20.921875 7.226562 -20.507812 6.21875 -19.6875 C 5.207031 -18.863281 4.484375 -17.773438 4.046875 -16.421875 C 3.609375 -15.066406 3.53125 -13.570312 3.8125 -11.9375 L 3.8125 -11.96875 C 4.144531 -9.832031 4.632812 -7.894531 5.28125 -6.15625 C 5.9375 -4.414062 6.742188 -3.035156 7.703125 -2.015625 C 8.660156 -0.992188 9.75 -0.484375 10.96875 -0.484375 C 11.632812 -0.484375 12.257812 -0.648438 12.84375 -0.984375 C 13.425781 -1.328125 13.914062 -1.800781 14.3125 -2.40625 C 14.707031 -3.019531 14.925781 -3.703125 14.96875 -4.453125 C 15.007812 -5.085938 14.875 -5.695312 14.5625 -6.28125 C 14.257812 -6.875 13.898438 -7.46875 13.484375 -8.0625 C 13.066406 -8.65625 12.695312 -9.269531 12.375 -9.90625 C 12.050781 -10.550781 11.890625 -11.257812 11.890625 -12.03125 C 11.890625 -12.769531 12.09375 -13.4375 12.5 -14.03125 C 12.90625 -14.632812 13.441406 -14.9375 14.109375 -14.9375 C 14.023438 -14.789062 13.957031 -14.644531 13.90625 -14.5 C 13.863281 -14.363281 13.84375 -14.175781 13.84375 -13.9375 C 13.84375 -13.40625 13.976562 -12.878906 14.25 -12.359375 C 14.519531 -11.835938 14.832031 -11.300781 15.1875 -10.75 C 15.550781 -10.195312 15.863281 -9.609375 16.125 -8.984375 C 16.394531 -8.367188 16.53125 -7.707031 16.53125 -7 C 16.53125 -5.695312 16.28125 -4.460938 15.78125 -3.296875 C 15.28125 -2.140625 14.566406 -1.191406 13.640625 -0.453125 C 12.710938 0.273438 11.609375 0.640625 10.328125 0.640625 C 9.023438 0.640625 7.804688 0.257812 6.671875 -0.5 C 5.546875 -1.269531 4.550781 -2.367188 3.6875 -3.796875 C 2.832031 -5.234375 2.160156 -6.957031 1.671875 -8.96875 C 1.191406 -10.988281 0.953125 -13.242188 0.953125 -15.734375 Z M 0.953125 -15.734375 "/></g></g></g><g fill="#2b2b2b" fill-opacity="1"><g transform="translate(16.657841, 60.840197)"><g><path d="M 1.765625 -25.359375 C 1.765625 -26.492188 1.757812 -27.460938 1.75 -28.265625 C 1.738281 -29.078125 1.65625 -29.769531 1.5 -30.34375 C 1.351562 -30.925781 1.066406 -31.429688 0.640625 -31.859375 L 0.640625 -31.984375 C 1.066406 -31.898438 1.609375 -31.804688 2.265625 -31.703125 C 2.929688 -31.609375 3.46875 -31.570312 3.875 -31.59375 C 4.59375 -31.664062 5.222656 -31.78125 5.765625 -31.9375 C 6.316406 -32.09375 6.867188 -32.242188 7.421875 -32.390625 C 7.972656 -32.546875 8.601562 -32.625 9.3125 -32.625 C 10.394531 -32.625 11.378906 -32.28125 12.265625 -31.59375 C 13.148438 -30.914062 13.859375 -30.035156 14.390625 -28.953125 C 14.921875 -27.878906 15.1875 -26.75 15.1875 -25.5625 C 15.1875 -24.59375 15.066406 -23.707031 14.828125 -22.90625 C 14.597656 -22.113281 14.304688 -21.34375 13.953125 -20.59375 C 13.609375 -19.851562 13.257812 -19.078125 12.90625 -18.265625 C 12.550781 -17.453125 12.253906 -16.554688 12.015625 -15.578125 C 11.785156 -14.597656 11.671875 -13.46875 11.671875 -12.1875 C 11.671875 -10.5625 11.785156 -9.078125 12.015625 -7.734375 C 12.253906 -6.390625 12.597656 -5.097656 13.046875 -3.859375 C 13.492188 -2.628906 14.03125 -1.34375 14.65625 0 L 11.734375 0 C 11.160156 -1.039062 10.671875 -2.269531 10.265625 -3.6875 C 9.859375 -5.113281 9.65625 -6.570312 9.65625 -8.0625 C 9.65625 -9.613281 9.835938 -11.078125 10.203125 -12.453125 C 10.566406 -13.828125 10.992188 -15.128906 11.484375 -16.359375 C 11.972656 -17.585938 12.398438 -18.75 12.765625 -19.84375 C 13.128906 -20.945312 13.3125 -22 13.3125 -23 C 13.3125 -23.894531 13.195312 -24.816406 12.96875 -25.765625 C 12.75 -26.710938 12.425781 -27.582031 12 -28.375 C 11.570312 -29.175781 11.054688 -29.828125 10.453125 -30.328125 C 9.859375 -30.835938 9.1875 -31.09375 8.4375 -31.09375 C 7.65625 -31.09375 6.957031 -31.039062 6.34375 -30.9375 C 5.738281 -30.84375 5.09375 -30.796875 4.40625 -30.796875 C 4.070312 -30.796875 3.675781 -30.835938 3.21875 -30.921875 C 2.757812 -31.015625 2.378906 -31.132812 2.078125 -31.28125 C 2.628906 -30.8125 3.070312 -30.203125 3.40625 -29.453125 C 3.738281 -28.710938 3.972656 -27.945312 4.109375 -27.15625 C 4.242188 -26.363281 4.3125 -25.628906 4.3125 -24.953125 L 4.3125 -6.625 C 4.3125 -5.507812 4.316406 -4.539062 4.328125 -3.71875 C 4.335938 -2.90625 4.414062 -2.207031 4.5625 -1.625 C 4.71875 -1.050781 5.007812 -0.550781 5.4375 -0.125 L 5.4375 0 L 0.640625 0 L 0.640625 -0.125 C 1.066406 -0.550781 1.351562 -1.050781 1.5 -1.625 C 1.65625 -2.207031 1.738281 -2.90625 1.75 -3.71875 C 1.757812 -4.539062 1.765625 -5.507812 1.765625 -6.625 Z M 1.765625 -25.359375 "/></g></g></g></g></g><g clip-path="url(#b25d12d9ff)"><path fill="#db4a2b" d="M 40.429688 4.238281 C 40.429688 4.433594 40.390625 4.621094 40.316406 4.800781 C 40.242188 4.980469 40.136719 5.136719 40 5.273438 C 39.863281 5.410156 39.703125 5.515625 39.527344 5.59375 C 39.347656 5.667969 39.160156 5.703125 38.964844 5.703125 C 38.769531 5.703125 38.582031 5.667969 38.402344 5.59375 C 38.226562 5.515625 38.066406 5.410156 37.929688 5.273438 C 37.792969 5.136719 37.6875 4.980469 37.613281 4.800781 C 37.539062 4.621094 37.5 4.433594 37.5 4.238281 C 37.5 4.042969 37.539062 3.855469 37.613281 3.679688 C 37.6875 3.5 37.792969 3.339844 37.929688 3.203125 C 38.066406 3.066406 38.226562 2.960938 38.402344 2.886719 C 38.582031 2.8125 38.769531 2.773438 38.964844 2.773438 C 39.160156 2.773438 39.347656 2.8125 39.527344 2.886719 C 39.703125 2.960938 39.863281 3.066406 40 3.203125 C 40.136719 3.339844 40.242188 3.5 40.316406 3.679688 C 40.390625 3.855469 40.429688 4.042969 40.429688 4.238281 Z M 40.429688 4.238281 " fill-opacity="1" fill-rule="nonzero"/><path fill="#db4a2b" d="M 38.992188 5.570312 C 38.980469 5.570312 38.972656 5.558594 38.972656 5.546875 C 38.972656 5.539062 38.980469 5.527344 38.992188 5.527344 L 39 5.527344 C 39 5.527344 39 5.527344 39.003906 5.527344 C 39.011719 5.527344 39.023438 5.535156 39.023438 5.546875 C 39.023438 5.558594 39.015625 5.566406 39.003906 5.570312 Z M 38.929688 5.570312 L 38.917969 5.570312 C 38.90625 5.566406 38.898438 5.558594 38.898438 5.546875 C 38.898438 5.535156 38.910156 5.527344 38.921875 5.527344 L 38.929688 5.527344 C 38.941406 5.527344 38.949219 5.539062 38.949219 5.546875 C 38.949219 5.558594 38.941406 5.570312 38.929688 5.570312 Z M 39.0625 5.566406 C 39.054688 5.566406 39.042969 5.558594 39.042969 5.546875 C 39.042969 5.535156 39.050781 5.523438 39.0625 5.523438 L 39.074219 5.523438 C 39.082031 5.523438 39.09375 5.53125 39.09375 5.542969 C 39.09375 5.554688 39.085938 5.5625 39.074219 5.566406 L 39.066406 5.566406 C 39.066406 5.566406 39.0625 5.566406 39.0625 5.566406 Z M 38.859375 5.566406 C 38.855469 5.566406 38.855469 5.566406 38.855469 5.566406 L 38.847656 5.5625 C 38.835938 5.5625 38.824219 5.554688 38.828125 5.542969 C 38.828125 5.53125 38.835938 5.523438 38.847656 5.523438 L 38.859375 5.523438 C 38.871094 5.523438 38.878906 5.535156 38.878906 5.546875 C 38.878906 5.558594 38.867188 5.566406 38.859375 5.566406 Z M 39.136719 5.558594 C 39.125 5.558594 39.117188 5.550781 39.113281 5.539062 C 39.113281 5.527344 39.121094 5.519531 39.132812 5.515625 L 39.144531 5.515625 C 39.15625 5.515625 39.164062 5.523438 39.167969 5.535156 C 39.167969 5.542969 39.160156 5.554688 39.148438 5.558594 Z M 38.785156 5.558594 L 38.773438 5.554688 C 38.761719 5.554688 38.753906 5.542969 38.753906 5.53125 C 38.757812 5.519531 38.765625 5.511719 38.777344 5.515625 L 38.789062 5.515625 C 38.800781 5.515625 38.808594 5.527344 38.804688 5.539062 C 38.804688 5.550781 38.796875 5.558594 38.785156 5.558594 Z M 39.207031 5.546875 C 39.195312 5.546875 39.1875 5.539062 39.1875 5.53125 C 39.183594 5.519531 39.191406 5.507812 39.203125 5.503906 L 39.214844 5.503906 C 39.222656 5.5 39.234375 5.507812 39.238281 5.519531 C 39.238281 5.53125 39.230469 5.542969 39.222656 5.542969 L 39.210938 5.546875 C 39.210938 5.546875 39.207031 5.546875 39.207031 5.546875 Z M 38.714844 5.546875 C 38.714844 5.546875 38.710938 5.546875 38.710938 5.546875 L 38.699219 5.542969 C 38.6875 5.539062 38.683594 5.53125 38.683594 5.519531 C 38.6875 5.507812 38.699219 5.5 38.707031 5.503906 L 38.71875 5.503906 C 38.730469 5.507812 38.738281 5.515625 38.734375 5.527344 C 38.734375 5.539062 38.722656 5.546875 38.714844 5.546875 Z M 39.277344 5.53125 C 39.269531 5.53125 39.257812 5.523438 39.257812 5.515625 C 39.253906 5.503906 39.261719 5.492188 39.273438 5.492188 L 39.28125 5.488281 C 39.292969 5.484375 39.304688 5.492188 39.308594 5.503906 C 39.308594 5.515625 39.304688 5.527344 39.292969 5.527344 L 39.28125 5.53125 C 39.28125 5.53125 39.277344 5.53125 39.277344 5.53125 Z M 38.644531 5.53125 C 38.644531 5.53125 38.640625 5.53125 38.640625 5.527344 L 38.628906 5.527344 C 38.617188 5.523438 38.613281 5.511719 38.613281 5.5 C 38.617188 5.488281 38.628906 5.484375 38.640625 5.488281 L 38.648438 5.488281 C 38.660156 5.492188 38.667969 5.503906 38.664062 5.515625 C 38.664062 5.523438 38.652344 5.53125 38.644531 5.53125 Z M 39.347656 5.511719 C 39.339844 5.511719 39.328125 5.507812 39.328125 5.496094 C 39.324219 5.488281 39.332031 5.476562 39.339844 5.472656 L 39.351562 5.46875 C 39.363281 5.464844 39.375 5.472656 39.375 5.484375 C 39.378906 5.492188 39.375 5.503906 39.363281 5.507812 L 39.351562 5.511719 C 39.351562 5.511719 39.347656 5.511719 39.347656 5.511719 Z M 38.574219 5.511719 C 38.574219 5.511719 38.570312 5.511719 38.570312 5.507812 L 38.558594 5.507812 C 38.546875 5.503906 38.542969 5.492188 38.546875 5.480469 C 38.550781 5.46875 38.558594 5.464844 38.570312 5.464844 L 38.582031 5.46875 C 38.59375 5.472656 38.597656 5.484375 38.59375 5.496094 C 38.59375 5.503906 38.582031 5.511719 38.574219 5.511719 Z M 39.414062 5.488281 C 39.40625 5.488281 39.398438 5.484375 39.394531 5.476562 C 39.390625 5.464844 39.398438 5.453125 39.410156 5.449219 L 39.417969 5.445312 C 39.429688 5.441406 39.441406 5.449219 39.445312 5.457031 C 39.449219 5.46875 39.441406 5.480469 39.433594 5.484375 L 39.421875 5.488281 C 39.421875 5.488281 39.417969 5.488281 39.414062 5.488281 Z M 38.507812 5.488281 C 38.503906 5.488281 38.5 5.488281 38.5 5.484375 L 38.488281 5.480469 C 38.480469 5.476562 38.472656 5.464844 38.476562 5.453125 C 38.480469 5.445312 38.492188 5.4375 38.503906 5.441406 L 38.515625 5.445312 C 38.523438 5.449219 38.53125 5.460938 38.527344 5.472656 C 38.523438 5.480469 38.515625 5.488281 38.507812 5.488281 Z M 39.480469 5.464844 C 39.472656 5.464844 39.464844 5.457031 39.464844 5.449219 C 39.457031 5.441406 39.464844 5.425781 39.472656 5.421875 L 39.484375 5.417969 C 39.492188 5.414062 39.507812 5.417969 39.511719 5.429688 C 39.515625 5.441406 39.511719 5.453125 39.5 5.457031 L 39.492188 5.460938 C 39.488281 5.460938 39.484375 5.464844 39.480469 5.464844 Z M 38.4375 5.460938 C 38.4375 5.460938 38.433594 5.460938 38.429688 5.457031 L 38.421875 5.453125 C 38.410156 5.449219 38.40625 5.4375 38.410156 5.425781 C 38.414062 5.414062 38.429688 5.410156 38.4375 5.414062 L 38.449219 5.417969 C 38.457031 5.425781 38.464844 5.4375 38.457031 5.445312 C 38.453125 5.453125 38.449219 5.460938 38.4375 5.460938 Z M 39.546875 5.433594 C 39.539062 5.433594 39.53125 5.429688 39.527344 5.421875 C 39.523438 5.410156 39.527344 5.398438 39.539062 5.394531 L 39.546875 5.390625 C 39.558594 5.382812 39.570312 5.386719 39.574219 5.398438 C 39.582031 5.410156 39.578125 5.421875 39.566406 5.425781 L 39.558594 5.429688 C 39.554688 5.433594 39.550781 5.433594 39.546875 5.433594 Z M 38.375 5.429688 C 38.371094 5.429688 38.367188 5.429688 38.363281 5.425781 L 38.355469 5.421875 C 38.347656 5.417969 38.34375 5.40625 38.347656 5.394531 C 38.351562 5.382812 38.363281 5.378906 38.375 5.386719 L 38.382812 5.390625 C 38.394531 5.394531 38.398438 5.40625 38.390625 5.417969 C 38.390625 5.425781 38.382812 5.429688 38.375 5.429688 Z M 39.609375 5.398438 C 39.605469 5.398438 39.597656 5.394531 39.59375 5.386719 C 39.585938 5.378906 39.589844 5.367188 39.601562 5.359375 L 39.609375 5.355469 C 39.621094 5.347656 39.632812 5.351562 39.636719 5.363281 C 39.644531 5.371094 39.640625 5.386719 39.628906 5.390625 L 39.621094 5.394531 C 39.617188 5.398438 39.613281 5.398438 39.609375 5.398438 Z M 38.308594 5.394531 C 38.308594 5.394531 38.304688 5.394531 38.300781 5.390625 L 38.292969 5.386719 C 38.28125 5.378906 38.277344 5.367188 38.285156 5.359375 C 38.289062 5.347656 38.300781 5.34375 38.3125 5.351562 L 38.320312 5.355469 C 38.332031 5.363281 38.335938 5.375 38.328125 5.382812 C 38.324219 5.390625 38.316406 5.394531 38.308594 5.394531 Z M 39.671875 5.363281 C 39.667969 5.363281 39.660156 5.359375 39.65625 5.351562 C 39.648438 5.34375 39.652344 5.328125 39.660156 5.324219 L 39.671875 5.316406 C 39.679688 5.3125 39.691406 5.3125 39.699219 5.324219 C 39.703125 5.332031 39.703125 5.347656 39.691406 5.351562 L 39.683594 5.359375 C 39.679688 5.359375 39.675781 5.363281 39.671875 5.363281 Z M 38.25 5.355469 C 38.246094 5.355469 38.242188 5.355469 38.238281 5.351562 L 38.230469 5.347656 C 38.21875 5.339844 38.214844 5.328125 38.222656 5.320312 C 38.230469 5.308594 38.242188 5.304688 38.25 5.3125 L 38.261719 5.320312 C 38.269531 5.324219 38.273438 5.335938 38.265625 5.347656 C 38.261719 5.351562 38.253906 5.355469 38.25 5.355469 Z M 39.730469 5.320312 C 39.726562 5.320312 39.71875 5.316406 39.714844 5.3125 C 39.707031 5.304688 39.710938 5.289062 39.71875 5.285156 L 39.726562 5.277344 C 39.738281 5.269531 39.75 5.273438 39.757812 5.28125 C 39.765625 5.292969 39.761719 5.304688 39.753906 5.3125 L 39.746094 5.316406 C 39.742188 5.320312 39.738281 5.320312 39.730469 5.320312 Z M 38.191406 5.316406 C 38.183594 5.316406 38.179688 5.3125 38.175781 5.3125 L 38.167969 5.304688 C 38.160156 5.296875 38.15625 5.285156 38.164062 5.277344 C 38.171875 5.265625 38.183594 5.265625 38.195312 5.273438 L 38.203125 5.277344 C 38.210938 5.285156 38.214844 5.296875 38.207031 5.308594 C 38.203125 5.3125 38.195312 5.316406 38.191406 5.316406 Z M 39.789062 5.277344 C 39.785156 5.277344 39.777344 5.273438 39.773438 5.269531 C 39.765625 5.261719 39.769531 5.246094 39.777344 5.242188 L 39.785156 5.234375 C 39.792969 5.226562 39.804688 5.226562 39.8125 5.238281 C 39.820312 5.246094 39.820312 5.257812 39.8125 5.265625 L 39.800781 5.273438 C 39.796875 5.277344 39.792969 5.277344 39.789062 5.277344 Z M 38.132812 5.269531 C 38.128906 5.269531 38.125 5.269531 38.121094 5.265625 L 38.113281 5.257812 C 38.101562 5.253906 38.101562 5.238281 38.109375 5.230469 C 38.117188 5.222656 38.128906 5.21875 38.136719 5.226562 L 38.144531 5.234375 C 38.15625 5.242188 38.15625 5.253906 38.148438 5.261719 C 38.144531 5.269531 38.136719 5.269531 38.132812 5.269531 Z M 39.84375 5.230469 C 39.839844 5.230469 39.832031 5.226562 39.828125 5.222656 C 39.820312 5.214844 39.820312 5.203125 39.832031 5.195312 L 39.839844 5.1875 C 39.847656 5.179688 39.859375 5.179688 39.867188 5.1875 C 39.875 5.195312 39.875 5.210938 39.867188 5.21875 L 39.859375 5.226562 C 39.855469 5.226562 39.847656 5.230469 39.84375 5.230469 Z M 38.078125 5.222656 C 38.074219 5.222656 38.066406 5.222656 38.0625 5.21875 L 38.054688 5.210938 C 38.046875 5.203125 38.046875 5.191406 38.054688 5.183594 C 38.0625 5.171875 38.078125 5.171875 38.085938 5.179688 L 38.09375 5.1875 C 38.101562 5.195312 38.101562 5.207031 38.09375 5.21875 C 38.089844 5.222656 38.082031 5.222656 38.078125 5.222656 Z M 39.894531 5.179688 C 39.890625 5.179688 39.886719 5.179688 39.882812 5.175781 C 39.875 5.167969 39.875 5.152344 39.882812 5.144531 L 39.890625 5.136719 C 39.898438 5.128906 39.910156 5.128906 39.917969 5.136719 C 39.925781 5.144531 39.925781 5.160156 39.917969 5.167969 L 39.910156 5.175781 C 39.90625 5.179688 39.902344 5.179688 39.894531 5.179688 Z M 38.027344 5.171875 C 38.019531 5.171875 38.015625 5.171875 38.011719 5.167969 L 38.003906 5.160156 C 37.996094 5.152344 37.996094 5.136719 38.003906 5.128906 C 38.011719 5.121094 38.027344 5.121094 38.035156 5.128906 L 38.042969 5.136719 C 38.050781 5.144531 38.050781 5.160156 38.039062 5.167969 C 38.035156 5.171875 38.03125 5.171875 38.027344 5.171875 Z M 39.945312 5.128906 C 39.941406 5.128906 39.9375 5.125 39.933594 5.121094 C 39.921875 5.113281 39.921875 5.101562 39.929688 5.09375 L 39.9375 5.085938 C 39.945312 5.078125 39.957031 5.074219 39.964844 5.082031 C 39.976562 5.089844 39.976562 5.105469 39.96875 5.113281 L 39.960938 5.121094 C 39.957031 5.125 39.953125 5.128906 39.945312 5.128906 Z M 37.976562 5.121094 C 37.972656 5.121094 37.964844 5.117188 37.960938 5.113281 L 37.957031 5.105469 C 37.949219 5.097656 37.949219 5.082031 37.957031 5.074219 C 37.964844 5.070312 37.980469 5.070312 37.988281 5.078125 L 37.992188 5.085938 C 38 5.09375 38 5.109375 37.992188 5.113281 C 37.988281 5.117188 37.980469 5.121094 37.976562 5.121094 Z M 39.992188 5.070312 C 39.988281 5.070312 39.984375 5.070312 39.980469 5.066406 C 39.96875 5.0625 39.96875 5.046875 39.976562 5.039062 L 39.980469 5.03125 C 39.988281 5.023438 40.003906 5.019531 40.011719 5.027344 C 40.019531 5.035156 40.023438 5.046875 40.015625 5.054688 L 40.007812 5.0625 C 40.003906 5.070312 40 5.070312 39.992188 5.070312 Z M 37.929688 5.066406 C 37.925781 5.066406 37.917969 5.0625 37.914062 5.054688 L 37.910156 5.046875 C 37.902344 5.039062 37.902344 5.027344 37.914062 5.019531 C 37.921875 5.011719 37.933594 5.015625 37.941406 5.023438 L 37.949219 5.03125 C 37.953125 5.039062 37.953125 5.054688 37.945312 5.058594 C 37.941406 5.0625 37.9375 5.066406 37.929688 5.066406 Z M 40.035156 5.015625 C 40.03125 5.015625 40.027344 5.011719 40.023438 5.011719 C 40.015625 5.003906 40.011719 4.992188 40.019531 4.980469 L 40.023438 4.972656 C 40.03125 4.964844 40.042969 4.960938 40.054688 4.96875 C 40.0625 4.976562 40.066406 4.988281 40.058594 4.996094 L 40.050781 5.003906 C 40.046875 5.011719 40.042969 5.015625 40.035156 5.015625 Z M 37.890625 5.007812 C 37.882812 5.007812 37.875 5.003906 37.871094 4.996094 L 37.867188 4.988281 C 37.859375 4.980469 37.863281 4.964844 37.871094 4.960938 C 37.878906 4.953125 37.894531 4.957031 37.898438 4.964844 L 37.90625 4.972656 C 37.914062 4.984375 37.910156 4.996094 37.902344 5.003906 C 37.898438 5.003906 37.894531 5.007812 37.890625 5.007812 Z M 40.074219 4.953125 C 40.070312 4.953125 40.066406 4.953125 40.0625 4.949219 C 40.054688 4.945312 40.050781 4.933594 40.058594 4.921875 L 40.0625 4.914062 C 40.070312 4.902344 40.082031 4.902344 40.089844 4.90625 C 40.101562 4.914062 40.105469 4.925781 40.097656 4.9375 L 40.09375 4.945312 C 40.089844 4.949219 40.082031 4.953125 40.074219 4.953125 Z M 37.847656 4.945312 C 37.84375 4.945312 37.835938 4.941406 37.832031 4.9375 L 37.828125 4.925781 C 37.820312 4.917969 37.824219 4.90625 37.832031 4.898438 C 37.84375 4.894531 37.855469 4.894531 37.863281 4.90625 L 37.867188 4.914062 C 37.871094 4.925781 37.871094 4.9375 37.859375 4.941406 C 37.855469 4.945312 37.851562 4.945312 37.847656 4.945312 Z M 40.113281 4.890625 C 40.109375 4.890625 40.105469 4.890625 40.101562 4.890625 C 40.09375 4.882812 40.089844 4.871094 40.09375 4.859375 L 40.097656 4.851562 C 40.105469 4.84375 40.117188 4.839844 40.125 4.84375 C 40.136719 4.847656 40.140625 4.863281 40.136719 4.871094 L 40.128906 4.882812 C 40.125 4.886719 40.121094 4.890625 40.113281 4.890625 Z M 37.8125 4.882812 C 37.804688 4.882812 37.796875 4.878906 37.796875 4.875 L 37.789062 4.863281 C 37.785156 4.855469 37.789062 4.839844 37.796875 4.835938 C 37.808594 4.832031 37.820312 4.835938 37.828125 4.84375 L 37.832031 4.851562 C 37.835938 4.863281 37.832031 4.875 37.824219 4.882812 C 37.820312 4.882812 37.816406 4.882812 37.8125 4.882812 Z M 40.144531 4.828125 C 40.140625 4.828125 40.140625 4.828125 40.136719 4.824219 C 40.125 4.820312 40.121094 4.808594 40.125 4.796875 L 40.132812 4.789062 C 40.136719 4.777344 40.148438 4.773438 40.160156 4.777344 C 40.167969 4.785156 40.171875 4.796875 40.167969 4.804688 L 40.164062 4.816406 C 40.160156 4.824219 40.152344 4.828125 40.144531 4.828125 Z M 37.78125 4.820312 C 37.773438 4.820312 37.765625 4.816406 37.761719 4.808594 L 37.757812 4.796875 C 37.753906 4.789062 37.757812 4.777344 37.765625 4.769531 C 37.777344 4.765625 37.789062 4.769531 37.796875 4.78125 L 37.800781 4.789062 C 37.804688 4.800781 37.800781 4.8125 37.789062 4.816406 C 37.785156 4.820312 37.785156 4.820312 37.78125 4.820312 Z M 40.175781 4.761719 C 40.171875 4.761719 40.167969 4.761719 40.167969 4.761719 C 40.15625 4.753906 40.152344 4.742188 40.15625 4.734375 L 40.160156 4.722656 C 40.164062 4.714844 40.175781 4.707031 40.1875 4.710938 C 40.195312 4.714844 40.203125 4.730469 40.199219 4.738281 L 40.195312 4.75 C 40.191406 4.757812 40.183594 4.761719 40.175781 4.761719 Z M 37.75 4.753906 C 37.742188 4.753906 37.734375 4.75 37.730469 4.742188 L 37.726562 4.730469 C 37.722656 4.71875 37.730469 4.707031 37.738281 4.703125 C 37.75 4.699219 37.761719 4.707031 37.765625 4.714844 L 37.769531 4.726562 C 37.773438 4.734375 37.769531 4.746094 37.757812 4.753906 C 37.757812 4.753906 37.753906 4.753906 37.75 4.753906 Z M 40.199219 4.695312 C 40.199219 4.695312 40.195312 4.695312 40.195312 4.691406 C 40.183594 4.6875 40.175781 4.675781 40.179688 4.667969 L 40.183594 4.65625 C 40.1875 4.644531 40.199219 4.640625 40.210938 4.644531 C 40.222656 4.648438 40.226562 4.660156 40.222656 4.671875 L 40.21875 4.679688 C 40.21875 4.6875 40.210938 4.695312 40.199219 4.695312 Z M 37.726562 4.6875 C 37.71875 4.6875 37.710938 4.679688 37.707031 4.671875 L 37.703125 4.664062 C 37.699219 4.652344 37.707031 4.640625 37.714844 4.636719 C 37.726562 4.632812 37.738281 4.636719 37.742188 4.648438 L 37.746094 4.660156 C 37.75 4.667969 37.742188 4.679688 37.734375 4.683594 C 37.730469 4.6875 37.726562 4.6875 37.726562 4.6875 Z M 40.222656 4.625 C 40.222656 4.625 40.21875 4.625 40.21875 4.625 C 40.207031 4.621094 40.199219 4.609375 40.203125 4.597656 L 40.207031 4.589844 C 40.207031 4.578125 40.21875 4.570312 40.230469 4.574219 C 40.242188 4.578125 40.25 4.589844 40.246094 4.601562 L 40.242188 4.609375 C 40.238281 4.621094 40.230469 4.625 40.222656 4.625 Z M 37.703125 4.617188 C 37.695312 4.617188 37.6875 4.613281 37.683594 4.601562 L 37.683594 4.59375 C 37.679688 4.582031 37.683594 4.570312 37.695312 4.566406 C 37.707031 4.5625 37.71875 4.570312 37.722656 4.582031 L 37.722656 4.589844 C 37.726562 4.601562 37.722656 4.613281 37.710938 4.617188 C 37.707031 4.617188 37.707031 4.617188 37.703125 4.617188 Z M 40.242188 4.554688 C 40.238281 4.554688 40.238281 4.554688 40.238281 4.554688 C 40.226562 4.550781 40.21875 4.542969 40.222656 4.53125 L 40.222656 4.519531 C 40.226562 4.507812 40.238281 4.503906 40.246094 4.503906 C 40.257812 4.507812 40.265625 4.519531 40.261719 4.53125 L 40.261719 4.539062 C 40.257812 4.550781 40.25 4.554688 40.242188 4.554688 Z M 37.6875 4.546875 C 37.675781 4.546875 37.667969 4.539062 37.667969 4.53125 L 37.664062 4.519531 C 37.660156 4.511719 37.667969 4.5 37.679688 4.496094 C 37.691406 4.492188 37.703125 4.5 37.703125 4.511719 L 37.707031 4.523438 C 37.710938 4.535156 37.703125 4.542969 37.691406 4.546875 C 37.691406 4.546875 37.6875 4.546875 37.6875 4.546875 Z M 40.253906 4.484375 C 40.253906 4.484375 40.253906 4.484375 40.25 4.484375 C 40.242188 4.484375 40.234375 4.472656 40.234375 4.460938 L 40.238281 4.449219 C 40.238281 4.4375 40.25 4.433594 40.261719 4.433594 C 40.273438 4.4375 40.28125 4.445312 40.277344 4.457031 L 40.277344 4.46875 C 40.273438 4.476562 40.265625 4.484375 40.253906 4.484375 Z M 37.671875 4.476562 C 37.664062 4.476562 37.652344 4.46875 37.652344 4.460938 L 37.652344 4.449219 C 37.648438 4.4375 37.65625 4.425781 37.667969 4.425781 C 37.679688 4.421875 37.691406 4.429688 37.691406 4.441406 L 37.691406 4.453125 C 37.695312 4.464844 37.6875 4.472656 37.675781 4.476562 C 37.675781 4.476562 37.675781 4.476562 37.671875 4.476562 Z M 40.265625 4.414062 C 40.265625 4.414062 40.265625 4.414062 40.261719 4.414062 C 40.253906 4.410156 40.242188 4.402344 40.246094 4.390625 L 40.246094 4.378906 C 40.246094 4.367188 40.257812 4.359375 40.269531 4.363281 C 40.28125 4.363281 40.289062 4.375 40.289062 4.386719 L 40.285156 4.394531 C 40.285156 4.40625 40.277344 4.414062 40.265625 4.414062 Z M 37.664062 4.40625 C 37.652344 4.40625 37.644531 4.398438 37.640625 4.386719 L 37.640625 4.375 C 37.640625 4.363281 37.648438 4.355469 37.660156 4.355469 C 37.671875 4.351562 37.679688 4.359375 37.683594 4.371094 L 37.683594 4.382812 C 37.683594 4.394531 37.675781 4.402344 37.664062 4.40625 Z M 40.273438 4.339844 C 40.273438 4.339844 40.269531 4.339844 40.269531 4.339844 C 40.257812 4.339844 40.25 4.332031 40.25 4.320312 L 40.253906 4.308594 C 40.253906 4.296875 40.261719 4.289062 40.273438 4.289062 C 40.285156 4.289062 40.292969 4.300781 40.292969 4.3125 L 40.292969 4.324219 C 40.292969 4.332031 40.28125 4.339844 40.273438 4.339844 Z M 37.65625 4.332031 C 37.644531 4.332031 37.636719 4.324219 37.636719 4.3125 L 37.636719 4.304688 C 37.636719 4.292969 37.644531 4.28125 37.65625 4.28125 C 37.667969 4.28125 37.675781 4.289062 37.675781 4.300781 L 37.675781 4.3125 C 37.679688 4.324219 37.667969 4.332031 37.65625 4.332031 Z M 40.273438 4.269531 C 40.261719 4.269531 40.253906 4.261719 40.253906 4.25 L 40.253906 4.234375 C 40.253906 4.222656 40.261719 4.214844 40.273438 4.214844 C 40.285156 4.214844 40.296875 4.222656 40.296875 4.234375 L 40.296875 4.25 C 40.296875 4.261719 40.285156 4.269531 40.273438 4.269531 Z M 37.65625 4.261719 C 37.644531 4.261719 37.632812 4.25 37.632812 4.242188 L 37.632812 4.230469 C 37.632812 4.21875 37.644531 4.210938 37.65625 4.210938 C 37.667969 4.210938 37.675781 4.21875 37.675781 4.230469 L 37.675781 4.238281 C 37.675781 4.25 37.667969 4.261719 37.65625 4.261719 Z M 40.273438 4.195312 C 40.261719 4.195312 40.253906 4.183594 40.253906 4.175781 L 40.253906 4.164062 C 40.25 4.152344 40.261719 4.144531 40.269531 4.140625 C 40.28125 4.140625 40.292969 4.148438 40.292969 4.160156 L 40.292969 4.171875 C 40.292969 4.183594 40.285156 4.191406 40.273438 4.195312 Z M 37.65625 4.1875 C 37.644531 4.1875 37.636719 4.179688 37.636719 4.167969 L 37.636719 4.15625 C 37.636719 4.144531 37.648438 4.136719 37.660156 4.136719 C 37.671875 4.136719 37.679688 4.148438 37.679688 4.160156 L 37.675781 4.167969 C 37.675781 4.179688 37.667969 4.1875 37.65625 4.1875 Z M 40.269531 4.121094 C 40.257812 4.121094 40.25 4.113281 40.246094 4.101562 L 40.246094 4.09375 C 40.246094 4.082031 40.253906 4.070312 40.265625 4.070312 C 40.277344 4.070312 40.285156 4.078125 40.289062 4.089844 L 40.289062 4.097656 C 40.289062 4.109375 40.28125 4.121094 40.269531 4.121094 Z M 37.664062 4.117188 C 37.660156 4.117188 37.660156 4.117188 37.660156 4.117188 C 37.648438 4.117188 37.640625 4.105469 37.640625 4.09375 L 37.644531 4.082031 C 37.644531 4.074219 37.65625 4.0625 37.667969 4.066406 C 37.675781 4.066406 37.6875 4.078125 37.683594 4.089844 L 37.683594 4.097656 C 37.683594 4.109375 37.671875 4.117188 37.664062 4.117188 Z M 40.257812 4.050781 C 40.25 4.050781 40.238281 4.042969 40.238281 4.03125 L 40.234375 4.023438 C 40.234375 4.011719 40.242188 4 40.253906 4 C 40.265625 3.996094 40.273438 4.003906 40.277344 4.015625 L 40.277344 4.027344 C 40.28125 4.039062 40.273438 4.046875 40.261719 4.050781 C 40.261719 4.050781 40.257812 4.050781 40.257812 4.050781 Z M 37.671875 4.046875 C 37.671875 4.046875 37.671875 4.046875 37.667969 4.046875 C 37.65625 4.042969 37.648438 4.03125 37.652344 4.023438 L 37.652344 4.011719 C 37.65625 4 37.667969 3.992188 37.675781 3.996094 C 37.6875 3.996094 37.695312 4.007812 37.695312 4.019531 L 37.691406 4.027344 C 37.691406 4.039062 37.683594 4.046875 37.671875 4.046875 Z M 40.246094 3.980469 C 40.234375 3.980469 40.226562 3.972656 40.222656 3.964844 L 40.222656 3.953125 C 40.21875 3.941406 40.226562 3.929688 40.238281 3.929688 C 40.25 3.925781 40.261719 3.933594 40.261719 3.945312 L 40.265625 3.953125 C 40.265625 3.964844 40.261719 3.976562 40.25 3.980469 C 40.246094 3.980469 40.246094 3.980469 40.246094 3.980469 Z M 37.6875 3.976562 C 37.683594 3.976562 37.683594 3.972656 37.679688 3.972656 C 37.671875 3.972656 37.664062 3.960938 37.664062 3.949219 L 37.667969 3.9375 C 37.671875 3.929688 37.683594 3.921875 37.691406 3.921875 C 37.703125 3.925781 37.710938 3.9375 37.707031 3.949219 L 37.707031 3.957031 C 37.703125 3.96875 37.695312 3.976562 37.6875 3.976562 Z M 40.226562 3.910156 C 40.21875 3.910156 40.210938 3.902344 40.207031 3.894531 L 40.203125 3.882812 C 40.203125 3.875 40.207031 3.863281 40.21875 3.859375 C 40.230469 3.855469 40.242188 3.863281 40.246094 3.871094 L 40.246094 3.882812 C 40.25 3.894531 40.242188 3.90625 40.234375 3.910156 C 40.230469 3.910156 40.230469 3.910156 40.226562 3.910156 Z M 37.703125 3.90625 C 37.703125 3.90625 37.699219 3.90625 37.699219 3.902344 C 37.6875 3.902344 37.679688 3.890625 37.683594 3.878906 L 37.6875 3.867188 C 37.691406 3.855469 37.699219 3.851562 37.710938 3.855469 C 37.722656 3.855469 37.730469 3.867188 37.726562 3.878906 L 37.722656 3.890625 C 37.722656 3.898438 37.710938 3.90625 37.703125 3.90625 Z M 40.207031 3.839844 C 40.199219 3.839844 40.191406 3.835938 40.1875 3.824219 L 40.183594 3.816406 C 40.179688 3.804688 40.183594 3.792969 40.195312 3.789062 C 40.207031 3.785156 40.21875 3.792969 40.222656 3.804688 L 40.226562 3.8125 C 40.230469 3.824219 40.222656 3.835938 40.214844 3.839844 C 40.210938 3.839844 40.207031 3.839844 40.207031 3.839844 Z M 37.726562 3.835938 C 37.722656 3.835938 37.71875 3.835938 37.71875 3.835938 C 37.707031 3.832031 37.703125 3.820312 37.707031 3.808594 L 37.707031 3.796875 C 37.710938 3.789062 37.722656 3.78125 37.734375 3.785156 C 37.746094 3.789062 37.75 3.800781 37.746094 3.8125 L 37.746094 3.820312 C 37.742188 3.832031 37.734375 3.835938 37.726562 3.835938 Z M 40.179688 3.773438 C 40.171875 3.773438 40.164062 3.765625 40.164062 3.757812 L 40.160156 3.75 C 40.152344 3.738281 40.160156 3.726562 40.167969 3.722656 C 40.179688 3.71875 40.191406 3.722656 40.195312 3.734375 L 40.199219 3.742188 C 40.203125 3.753906 40.199219 3.765625 40.1875 3.769531 C 40.1875 3.773438 40.183594 3.773438 40.179688 3.773438 Z M 37.75 3.769531 C 37.746094 3.769531 37.746094 3.765625 37.742188 3.765625 C 37.730469 3.761719 37.726562 3.75 37.730469 3.738281 L 37.734375 3.730469 C 37.738281 3.71875 37.75 3.714844 37.761719 3.71875 C 37.773438 3.722656 37.777344 3.734375 37.773438 3.746094 L 37.769531 3.753906 C 37.765625 3.761719 37.757812 3.769531 37.75 3.769531 Z M 40.152344 3.707031 C 40.144531 3.707031 40.136719 3.703125 40.132812 3.695312 L 40.128906 3.683594 C 40.125 3.675781 40.128906 3.664062 40.140625 3.65625 C 40.148438 3.652344 40.164062 3.65625 40.167969 3.667969 L 40.171875 3.675781 C 40.175781 3.6875 40.171875 3.699219 40.160156 3.703125 C 40.160156 3.707031 40.15625 3.707031 40.152344 3.707031 Z M 37.777344 3.703125 C 37.777344 3.703125 37.773438 3.699219 37.769531 3.699219 C 37.761719 3.695312 37.753906 3.683594 37.761719 3.671875 L 37.765625 3.664062 C 37.769531 3.652344 37.78125 3.648438 37.792969 3.652344 C 37.804688 3.65625 37.808594 3.671875 37.800781 3.679688 L 37.796875 3.691406 C 37.792969 3.699219 37.785156 3.703125 37.777344 3.703125 Z M 40.121094 3.640625 C 40.113281 3.640625 40.105469 3.636719 40.101562 3.632812 L 40.097656 3.621094 C 40.09375 3.613281 40.09375 3.597656 40.105469 3.59375 C 40.117188 3.589844 40.128906 3.59375 40.132812 3.601562 L 40.140625 3.613281 C 40.144531 3.621094 40.140625 3.632812 40.128906 3.640625 C 40.128906 3.640625 40.125 3.640625 40.121094 3.640625 Z M 37.8125 3.636719 C 37.808594 3.636719 37.804688 3.636719 37.800781 3.632812 C 37.792969 3.628906 37.789062 3.617188 37.792969 3.605469 L 37.796875 3.597656 C 37.804688 3.585938 37.816406 3.582031 37.828125 3.589844 C 37.835938 3.59375 37.839844 3.609375 37.835938 3.617188 L 37.828125 3.625 C 37.828125 3.632812 37.820312 3.636719 37.8125 3.636719 Z M 40.085938 3.578125 C 40.078125 3.578125 40.070312 3.574219 40.066406 3.570312 L 40.0625 3.5625 C 40.054688 3.550781 40.058594 3.539062 40.070312 3.53125 C 40.078125 3.527344 40.089844 3.53125 40.097656 3.539062 L 40.101562 3.546875 C 40.109375 3.558594 40.105469 3.570312 40.09375 3.578125 C 40.09375 3.578125 40.089844 3.578125 40.085938 3.578125 Z M 37.847656 3.574219 C 37.84375 3.574219 37.839844 3.574219 37.835938 3.570312 C 37.828125 3.566406 37.824219 3.554688 37.832031 3.542969 L 37.835938 3.535156 C 37.839844 3.523438 37.855469 3.523438 37.863281 3.527344 C 37.875 3.535156 37.875 3.546875 37.871094 3.554688 L 37.867188 3.566406 C 37.863281 3.570312 37.855469 3.574219 37.847656 3.574219 Z M 40.046875 3.519531 C 40.039062 3.519531 40.03125 3.515625 40.027344 3.511719 L 40.023438 3.5 C 40.015625 3.492188 40.019531 3.480469 40.027344 3.472656 C 40.039062 3.464844 40.050781 3.46875 40.058594 3.476562 L 40.0625 3.488281 C 40.070312 3.496094 40.066406 3.507812 40.058594 3.515625 C 40.054688 3.519531 40.050781 3.519531 40.046875 3.519531 Z M 37.886719 3.515625 C 37.882812 3.515625 37.878906 3.511719 37.875 3.511719 C 37.867188 3.503906 37.863281 3.492188 37.871094 3.480469 L 37.875 3.472656 C 37.882812 3.464844 37.894531 3.460938 37.90625 3.46875 C 37.914062 3.472656 37.917969 3.488281 37.910156 3.496094 L 37.90625 3.503906 C 37.898438 3.511719 37.894531 3.515625 37.886719 3.515625 Z M 40.003906 3.460938 C 39.996094 3.460938 39.992188 3.457031 39.988281 3.453125 L 39.980469 3.445312 C 39.972656 3.433594 39.976562 3.421875 39.984375 3.414062 C 39.992188 3.410156 40.007812 3.410156 40.011719 3.417969 L 40.019531 3.425781 C 40.027344 3.4375 40.023438 3.449219 40.015625 3.457031 C 40.011719 3.460938 40.007812 3.460938 40.003906 3.460938 Z M 37.929688 3.457031 C 37.925781 3.457031 37.921875 3.453125 37.917969 3.453125 C 37.910156 3.445312 37.90625 3.429688 37.914062 3.421875 L 37.921875 3.414062 C 37.925781 3.40625 37.941406 3.402344 37.949219 3.410156 C 37.957031 3.417969 37.960938 3.429688 37.953125 3.441406 L 37.945312 3.449219 C 37.941406 3.453125 37.9375 3.457031 37.929688 3.457031 Z M 39.957031 3.40625 C 39.953125 3.40625 39.945312 3.402344 39.941406 3.398438 L 39.933594 3.390625 C 39.929688 3.382812 39.929688 3.367188 39.9375 3.359375 C 39.945312 3.351562 39.957031 3.355469 39.964844 3.363281 L 39.972656 3.371094 C 39.980469 3.378906 39.980469 3.390625 39.972656 3.398438 C 39.96875 3.402344 39.960938 3.40625 39.957031 3.40625 Z M 37.976562 3.398438 C 37.972656 3.398438 37.964844 3.398438 37.960938 3.394531 C 37.953125 3.386719 37.953125 3.375 37.960938 3.367188 L 37.96875 3.359375 C 37.976562 3.347656 37.988281 3.347656 37.996094 3.355469 C 38.003906 3.363281 38.003906 3.375 38 3.386719 L 37.992188 3.394531 C 37.988281 3.398438 37.980469 3.398438 37.976562 3.398438 Z M 39.910156 3.351562 C 39.902344 3.351562 39.898438 3.347656 39.894531 3.34375 L 39.886719 3.335938 C 39.878906 3.328125 39.878906 3.316406 39.886719 3.308594 C 39.894531 3.300781 39.910156 3.300781 39.917969 3.308594 L 39.925781 3.316406 C 39.933594 3.324219 39.933594 3.335938 39.921875 3.34375 C 39.917969 3.347656 39.914062 3.351562 39.910156 3.351562 Z M 38.023438 3.347656 C 38.019531 3.347656 38.015625 3.34375 38.011719 3.339844 C 38.003906 3.332031 38 3.320312 38.011719 3.3125 L 38.015625 3.304688 C 38.023438 3.296875 38.039062 3.296875 38.046875 3.304688 C 38.054688 3.3125 38.054688 3.324219 38.046875 3.332031 L 38.039062 3.339844 C 38.035156 3.34375 38.03125 3.347656 38.023438 3.347656 Z M 39.859375 3.300781 C 39.851562 3.300781 39.847656 3.300781 39.84375 3.296875 L 39.835938 3.289062 C 39.828125 3.28125 39.828125 3.265625 39.835938 3.257812 C 39.84375 3.25 39.855469 3.25 39.863281 3.257812 L 39.871094 3.265625 C 39.878906 3.273438 39.878906 3.285156 39.871094 3.292969 C 39.867188 3.296875 39.863281 3.300781 39.859375 3.300781 Z M 38.078125 3.296875 C 38.070312 3.296875 38.066406 3.292969 38.0625 3.289062 C 38.054688 3.28125 38.054688 3.269531 38.0625 3.261719 L 38.070312 3.253906 C 38.078125 3.246094 38.089844 3.246094 38.097656 3.253906 C 38.105469 3.261719 38.105469 3.277344 38.097656 3.285156 L 38.089844 3.292969 C 38.085938 3.292969 38.082031 3.296875 38.078125 3.296875 Z M 39.804688 3.253906 C 39.800781 3.253906 39.792969 3.25 39.789062 3.25 L 39.78125 3.242188 C 39.773438 3.234375 39.773438 3.222656 39.78125 3.210938 C 39.785156 3.203125 39.800781 3.203125 39.808594 3.210938 L 39.816406 3.214844 C 39.824219 3.222656 39.828125 3.238281 39.820312 3.246094 C 39.816406 3.25 39.808594 3.253906 39.804688 3.253906 Z M 38.128906 3.25 C 38.125 3.25 38.117188 3.246094 38.113281 3.242188 C 38.109375 3.234375 38.109375 3.21875 38.117188 3.210938 L 38.125 3.207031 C 38.132812 3.199219 38.148438 3.199219 38.15625 3.207031 C 38.160156 3.21875 38.160156 3.230469 38.152344 3.238281 L 38.144531 3.246094 C 38.140625 3.246094 38.136719 3.25 38.128906 3.25 Z M 39.746094 3.207031 C 39.742188 3.207031 39.738281 3.207031 39.734375 3.203125 L 39.726562 3.199219 C 39.71875 3.191406 39.714844 3.179688 39.722656 3.167969 C 39.730469 3.160156 39.742188 3.15625 39.75 3.164062 L 39.757812 3.171875 C 39.769531 3.179688 39.769531 3.191406 39.761719 3.199219 C 39.757812 3.207031 39.753906 3.207031 39.746094 3.207031 Z M 38.1875 3.203125 C 38.179688 3.203125 38.175781 3.203125 38.171875 3.195312 C 38.164062 3.1875 38.164062 3.175781 38.175781 3.167969 L 38.183594 3.160156 C 38.191406 3.15625 38.207031 3.15625 38.210938 3.164062 C 38.21875 3.175781 38.21875 3.1875 38.207031 3.195312 L 38.199219 3.199219 C 38.195312 3.203125 38.191406 3.203125 38.1875 3.203125 Z M 39.6875 3.167969 C 39.683594 3.167969 39.679688 3.164062 39.675781 3.164062 L 39.667969 3.15625 C 39.660156 3.152344 39.65625 3.136719 39.660156 3.128906 C 39.667969 3.121094 39.679688 3.117188 39.691406 3.121094 L 39.699219 3.128906 C 39.707031 3.136719 39.710938 3.148438 39.707031 3.15625 C 39.699219 3.164062 39.695312 3.167969 39.6875 3.167969 Z M 38.246094 3.164062 C 38.238281 3.164062 38.234375 3.160156 38.230469 3.152344 C 38.222656 3.144531 38.226562 3.132812 38.234375 3.125 L 38.242188 3.121094 C 38.253906 3.113281 38.265625 3.117188 38.273438 3.125 C 38.277344 3.136719 38.277344 3.148438 38.265625 3.15625 L 38.257812 3.160156 C 38.253906 3.164062 38.25 3.164062 38.246094 3.164062 Z M 39.625 3.128906 C 39.621094 3.128906 39.621094 3.128906 39.617188 3.125 L 39.605469 3.121094 C 39.597656 3.113281 39.59375 3.101562 39.597656 3.09375 C 39.605469 3.082031 39.617188 3.078125 39.628906 3.085938 L 39.636719 3.089844 C 39.648438 3.09375 39.648438 3.109375 39.644531 3.117188 C 39.640625 3.125 39.632812 3.128906 39.625 3.128906 Z M 38.308594 3.125 C 38.300781 3.125 38.292969 3.121094 38.289062 3.117188 C 38.285156 3.105469 38.289062 3.09375 38.296875 3.085938 L 38.304688 3.082031 C 38.316406 3.078125 38.328125 3.078125 38.335938 3.089844 C 38.339844 3.097656 38.335938 3.113281 38.328125 3.117188 L 38.316406 3.121094 C 38.316406 3.125 38.3125 3.125 38.308594 3.125 Z M 39.5625 3.09375 C 39.558594 3.09375 39.558594 3.09375 39.554688 3.089844 L 39.542969 3.085938 C 39.535156 3.082031 39.53125 3.070312 39.535156 3.058594 C 39.539062 3.046875 39.554688 3.042969 39.5625 3.050781 L 39.574219 3.054688 C 39.582031 3.058594 39.585938 3.070312 39.582031 3.082031 C 39.578125 3.089844 39.570312 3.09375 39.5625 3.09375 Z M 38.371094 3.089844 C 38.363281 3.089844 38.355469 3.085938 38.351562 3.078125 C 38.347656 3.070312 38.351562 3.058594 38.363281 3.050781 L 38.371094 3.046875 C 38.382812 3.042969 38.394531 3.046875 38.398438 3.054688 C 38.402344 3.066406 38.398438 3.078125 38.390625 3.085938 L 38.378906 3.089844 C 38.378906 3.089844 38.375 3.089844 38.371094 3.089844 Z M 39.496094 3.0625 C 39.496094 3.0625 39.492188 3.0625 39.488281 3.058594 L 39.480469 3.054688 C 39.46875 3.050781 39.464844 3.039062 39.46875 3.027344 C 39.472656 3.019531 39.488281 3.015625 39.496094 3.019531 L 39.507812 3.023438 C 39.515625 3.027344 39.523438 3.039062 39.515625 3.050781 C 39.511719 3.058594 39.507812 3.0625 39.496094 3.0625 Z M 38.4375 3.058594 C 38.429688 3.058594 38.421875 3.054688 38.417969 3.046875 C 38.414062 3.039062 38.417969 3.023438 38.429688 3.019531 L 38.4375 3.015625 C 38.449219 3.011719 38.460938 3.015625 38.464844 3.027344 C 38.46875 3.039062 38.464844 3.050781 38.453125 3.054688 L 38.445312 3.058594 C 38.441406 3.058594 38.4375 3.058594 38.4375 3.058594 Z M 39.429688 3.035156 C 39.429688 3.035156 39.425781 3.035156 39.421875 3.035156 L 39.414062 3.03125 C 39.402344 3.027344 39.398438 3.015625 39.402344 3.003906 C 39.40625 2.992188 39.417969 2.988281 39.429688 2.992188 L 39.4375 2.996094 C 39.449219 3 39.453125 3.011719 39.449219 3.019531 C 39.449219 3.03125 39.4375 3.035156 39.429688 3.035156 Z M 38.503906 3.03125 C 38.496094 3.03125 38.488281 3.027344 38.484375 3.019531 C 38.480469 3.007812 38.484375 2.996094 38.496094 2.992188 L 38.503906 2.988281 C 38.515625 2.984375 38.527344 2.992188 38.53125 3 C 38.535156 3.011719 38.53125 3.023438 38.519531 3.027344 L 38.511719 3.03125 C 38.507812 3.03125 38.503906 3.03125 38.503906 3.03125 Z M 39.363281 3.011719 C 39.359375 3.011719 39.359375 3.011719 39.355469 3.011719 L 39.347656 3.007812 C 39.335938 3.003906 39.328125 2.992188 39.332031 2.980469 C 39.335938 2.96875 39.347656 2.964844 39.359375 2.96875 L 39.367188 2.96875 C 39.378906 2.972656 39.386719 2.984375 39.382812 2.996094 C 39.378906 3.003906 39.371094 3.011719 39.363281 3.011719 Z M 38.570312 3.007812 C 38.5625 3.007812 38.554688 3.003906 38.550781 2.996094 C 38.546875 2.984375 38.554688 2.972656 38.566406 2.96875 L 38.574219 2.964844 C 38.585938 2.960938 38.597656 2.96875 38.601562 2.980469 C 38.605469 2.992188 38.597656 3.003906 38.585938 3.003906 L 38.578125 3.007812 C 38.574219 3.007812 38.574219 3.007812 38.570312 3.007812 Z M 39.292969 2.992188 C 39.292969 2.992188 39.289062 2.992188 39.289062 2.988281 L 39.277344 2.988281 C 39.265625 2.984375 39.261719 2.972656 39.261719 2.960938 C 39.265625 2.953125 39.277344 2.945312 39.289062 2.949219 L 39.296875 2.949219 C 39.308594 2.953125 39.316406 2.964844 39.3125 2.976562 C 39.3125 2.984375 39.300781 2.992188 39.292969 2.992188 Z M 38.640625 2.988281 C 38.632812 2.988281 38.621094 2.984375 38.621094 2.972656 C 38.617188 2.964844 38.625 2.953125 38.636719 2.949219 L 38.644531 2.945312 C 38.65625 2.945312 38.667969 2.949219 38.671875 2.960938 C 38.671875 2.972656 38.667969 2.984375 38.65625 2.988281 L 38.644531 2.988281 C 38.644531 2.988281 38.640625 2.988281 38.640625 2.988281 Z M 39.222656 2.976562 C 39.222656 2.976562 39.21875 2.972656 39.21875 2.972656 L 39.210938 2.972656 C 39.199219 2.96875 39.191406 2.960938 39.191406 2.949219 C 39.195312 2.9375 39.207031 2.929688 39.21875 2.933594 L 39.226562 2.933594 C 39.238281 2.9375 39.246094 2.945312 39.242188 2.957031 C 39.242188 2.96875 39.234375 2.976562 39.222656 2.976562 Z M 38.710938 2.972656 C 38.703125 2.972656 38.691406 2.96875 38.691406 2.957031 C 38.6875 2.945312 38.695312 2.933594 38.707031 2.933594 L 38.71875 2.929688 C 38.730469 2.929688 38.738281 2.9375 38.742188 2.949219 C 38.742188 2.957031 38.734375 2.96875 38.726562 2.972656 L 38.714844 2.972656 C 38.714844 2.972656 38.710938 2.972656 38.710938 2.972656 Z M 39.152344 2.960938 C 39.152344 2.960938 39.148438 2.960938 39.148438 2.960938 L 39.140625 2.960938 C 39.128906 2.960938 39.121094 2.949219 39.121094 2.9375 C 39.121094 2.925781 39.132812 2.917969 39.144531 2.921875 L 39.15625 2.921875 C 39.167969 2.921875 39.175781 2.933594 39.171875 2.945312 C 39.171875 2.957031 39.164062 2.960938 39.152344 2.960938 Z M 38.78125 2.960938 C 38.773438 2.960938 38.761719 2.953125 38.761719 2.945312 C 38.761719 2.933594 38.769531 2.921875 38.777344 2.921875 L 38.789062 2.917969 C 38.800781 2.917969 38.8125 2.925781 38.8125 2.9375 C 38.8125 2.949219 38.804688 2.957031 38.796875 2.960938 L 38.785156 2.960938 C 38.785156 2.960938 38.78125 2.960938 38.78125 2.960938 Z M 39.082031 2.953125 C 39.078125 2.953125 39.078125 2.953125 39.078125 2.953125 L 39.070312 2.953125 C 39.058594 2.953125 39.046875 2.941406 39.050781 2.929688 C 39.050781 2.917969 39.058594 2.910156 39.070312 2.910156 L 39.082031 2.914062 C 39.09375 2.914062 39.101562 2.925781 39.101562 2.933594 C 39.101562 2.945312 39.089844 2.953125 39.082031 2.953125 Z M 38.855469 2.953125 C 38.84375 2.953125 38.835938 2.945312 38.832031 2.933594 C 38.832031 2.921875 38.839844 2.914062 38.851562 2.914062 L 38.863281 2.910156 C 38.875 2.910156 38.882812 2.917969 38.882812 2.929688 C 38.886719 2.941406 38.878906 2.953125 38.867188 2.953125 Z M 39.007812 2.949219 L 38.996094 2.949219 C 38.984375 2.949219 38.976562 2.941406 38.976562 2.929688 C 38.976562 2.917969 38.988281 2.90625 39 2.910156 L 39.007812 2.910156 C 39.019531 2.910156 39.03125 2.917969 39.027344 2.929688 C 39.027344 2.941406 39.019531 2.949219 39.007812 2.949219 Z M 38.925781 2.949219 C 38.914062 2.949219 38.90625 2.941406 38.90625 2.929688 C 38.90625 2.917969 38.914062 2.910156 38.925781 2.910156 L 38.9375 2.90625 C 38.945312 2.90625 38.957031 2.917969 38.957031 2.929688 C 38.957031 2.941406 38.949219 2.949219 38.9375 2.949219 Z M 38.925781 2.949219 " fill-opacity="1" fill-rule="nonzero"/></g></svg>